if (_typeface_js && _typeface_js.loadFace) _typeface_js.loadFace({"glyphs":{"¦":{"x_min":317,"x_max":378,"ha":694,"o":"m 378 277 l 378 -237 l 317 -237 l 317 277 l 378 277 m 378 971 l 378 457 l 317 457 l 317 971 l 378 971 "},"Ž":{"x_min":35,"x_max":556,"ha":591,"o":"m 35 0 l 35 88 l 464 956 l 59 956 l 59 1035 l 556 1035 l 556 946 l 126 82 l 556 82 l 556 0 l 35 0 m 127 1305 l 185 1305 l 295 1179 l 406 1305 l 465 1305 l 346 1121 l 245 1121 l 127 1305 "},"Á":{"x_min":22,"x_max":678,"ha":701,"o":"m 22 0 l 300 1035 l 402 1035 l 678 0 l 590 0 l 503 325 l 191 325 l 102 0 l 22 0 m 206 404 l 485 404 l 346 921 l 206 404 m 277 1121 l 395 1305 l 505 1305 l 337 1121 l 277 1121 "},"Î":{"x_min":-24,"x_max":314,"ha":288,"o":"m 100 0 l 100 1035 l 187 1035 l 187 0 l 100 0 m -24 1121 l 94 1305 l 195 1305 l 314 1121 l 255 1121 l 144 1246 l 34 1121 l -24 1121 "},"e":{"x_min":65,"x_max":515,"ha":581,"o":"m 510 245 q 447 47 503 115 q 290 -21 391 -21 q 120 77 175 -21 q 65 379 65 175 q 121 682 65 584 q 296 781 178 781 q 459 697 403 781 q 515 452 515 614 l 515 388 l 152 388 l 152 345 q 186 124 152 197 q 289 52 221 52 q 389 102 353 52 q 429 245 425 152 l 510 245 m 152 457 l 430 457 q 431 473 430 462 q 432 490 432 485 q 396 652 432 595 q 295 710 360 710 q 188 646 225 710 q 152 463 152 583 l 152 457 "},"»":{"x_min":79,"x_max":543,"ha":623,"o":"m 282 425 l 282 336 l 79 186 l 79 268 l 229 380 l 79 494 l 79 577 l 282 425 m 543 425 l 543 336 l 340 186 l 340 268 l 491 380 l 340 494 l 340 577 l 543 425 "},"∆":{"x_min":-8,"x_max":913,"ha":905,"o":"m 783 82 l 453 918 l 120 82 l 783 82 m 511 999 l 913 0 l -8 0 l 394 999 l 511 999 "},"ò":{"x_min":65,"x_max":554,"ha":621,"o":"m 152 379 q 191 135 152 217 q 309 53 231 53 q 427 135 387 53 q 468 379 468 218 q 427 623 468 540 q 309 706 387 706 q 191 623 231 706 q 152 379 152 541 m 65 379 q 126 680 65 580 q 309 781 187 781 q 492 680 431 781 q 554 379 554 580 q 493 78 554 178 q 309 -21 432 -21 q 125 78 186 -21 q 65 379 65 178 m 392 846 l 333 846 l 165 1030 l 273 1030 l 392 846 "},"^":{"x_min":288,"x_max":1100,"ha":1389,"o":"m 733 989 l 1100 611 l 1015 611 l 694 929 l 372 611 l 288 611 l 653 989 l 733 989 "},"«":{"x_min":79,"x_max":543,"ha":623,"o":"m 340 425 l 543 577 l 543 494 l 391 380 l 543 268 l 543 186 l 340 336 l 340 425 m 79 425 l 282 577 l 282 494 l 130 380 l 282 268 l 282 186 l 79 336 l 79 425 "},"∙":{"x_min":106,"x_max":219,"ha":325,"o":"m 106 472 q 122 512 106 496 q 163 529 138 529 q 203 512 187 529 q 219 472 219 496 q 202 431 219 448 q 163 415 185 415 q 122 431 139 415 q 106 472 106 448 "},"í":{"x_min":80,"x_max":308,"ha":307,"o":"m 111 0 l 111 762 l 196 762 l 196 0 l 111 0 m 80 846 l 198 1030 l 308 1030 l 140 846 l 80 846 "},"ˆ":{"x_min":179,"x_max":517,"ha":694,"o":"m 179 846 l 297 1030 l 398 1030 l 517 846 l 458 846 l 347 971 l 237 846 l 179 846 "},"µ":{"x_min":-75,"x_max":693,"ha":742,"o":"m 221 721 l 137 320 q 128 268 131 291 q 126 225 126 245 q 166 94 126 139 q 284 50 207 50 q 433 123 370 50 q 526 336 496 197 l 610 721 l 693 721 l 580 187 q 577 171 579 181 q 563 95 563 109 q 575 63 563 74 q 609 52 587 52 q 622 53 615 52 q 636 54 628 53 l 623 -11 q 618 -12 621 -11 q 572 -20 585 -20 q 504 1 526 -20 q 482 66 482 22 q 482 77 482 71 q 484 96 482 83 q 401 10 455 40 q 273 -20 346 -20 q 158 10 207 -20 q 87 96 109 41 l 6 -288 l -75 -288 l 139 721 l 221 721 "},"č":{"x_min":82,"x_max":533,"ha":589,"o":"m 533 260 q 467 50 524 121 q 312 -21 411 -21 q 140 81 199 -21 q 82 380 82 183 q 141 681 82 580 q 316 782 200 782 q 464 719 409 782 q 525 546 520 656 l 446 546 q 408 664 443 620 q 319 708 374 708 q 207 623 246 708 q 168 380 168 539 q 207 139 168 225 q 316 53 246 53 q 411 107 375 53 q 452 260 446 161 l 533 260 m 147 1030 l 205 1030 l 315 904 l 426 1030 l 485 1030 l 366 846 l 265 846 l 147 1030 "},"’":{"x_min":114,"x_max":210,"ha":325,"o":"m 114 913 l 114 1035 l 210 1035 l 210 913 q 186 786 210 832 q 114 722 163 740 l 114 776 q 152 816 140 791 q 165 883 165 842 q 164 901 165 895 q 163 912 164 906 l 114 913 "},"-":{"x_min":68,"x_max":438,"ha":482,"o":"m 68 343 l 68 416 l 438 416 l 438 343 l 68 343 "},"Q":{"x_min":77,"x_max":726.65625,"ha":764,"o":"m 485 92 l 390 169 l 439 227 l 534 149 q 583 296 568 209 q 598 517 598 383 q 545 864 598 752 q 382 976 492 976 q 219 864 272 976 q 167 517 167 752 q 219 171 167 285 q 380 58 272 58 q 433 66 407 58 q 485 92 459 75 m 553 38 q 472 -6 515 8 q 378 -21 428 -21 q 150 110 224 -21 q 77 518 77 242 q 150 925 77 795 q 382 1055 224 1055 q 615 922 542 1055 q 688 491 688 789 q 667 247 688 345 q 603 93 646 148 l 726 -1 l 681 -62 l 553 38 "},"M":{"x_min":97,"x_max":895,"ha":991,"o":"m 97 0 l 97 1035 l 241 1035 l 496 120 l 752 1035 l 895 1035 l 895 0 l 812 0 l 812 961 l 543 0 l 450 0 l 180 961 l 180 0 l 97 0 "},"œ":{"x_min":65,"x_max":917,"ha":983,"o":"m 503 108 q 431 10 479 42 q 309 -21 384 -21 q 124 76 184 -21 q 65 378 65 173 q 125 682 65 582 q 308 783 186 783 q 427 752 379 783 q 508 654 474 722 q 582 749 533 716 q 701 783 632 783 q 862 699 807 783 q 917 451 917 615 l 917 387 l 554 387 l 554 344 q 588 124 554 197 q 691 52 622 52 q 790 100 754 52 q 835 244 825 148 l 909 244 q 850 48 907 117 q 691 -21 793 -21 q 574 10 619 -21 q 503 108 528 41 m 554 456 l 832 456 q 833 471 833 463 q 834 497 834 480 q 798 653 834 598 q 697 708 762 708 q 590 645 627 708 q 554 462 554 583 l 554 456 m 309 708 q 191 626 230 708 q 152 379 152 544 q 191 134 152 217 q 309 52 231 52 q 427 135 387 52 q 468 379 468 218 q 427 623 468 539 q 309 708 387 708 "},"{":{"x_min":120,"x_max":574,"ha":694,"o":"m 574 942 l 548 942 q 425 907 457 942 q 394 762 394 872 l 394 599 q 365 431 394 481 q 262 360 336 382 q 365 290 336 338 q 394 121 394 241 l 394 -42 q 425 -185 394 -151 q 547 -220 456 -220 l 574 -220 l 574 -280 l 544 -280 q 371 -229 417 -280 q 325 -25 325 -178 l 325 137 q 285 287 325 244 q 150 331 246 331 q 135 330 145 331 q 120 330 126 330 l 120 391 q 133 390 126 390 q 153 390 140 390 q 286 433 247 390 q 325 584 325 477 l 325 746 q 371 951 325 900 q 544 1002 417 1002 l 574 1002 l 574 942 "},"¼":{"x_min":60,"x_max":1012,"ha":1050,"o":"m 898 0 l 898 149 l 676 149 l 676 191 l 898 571 l 954 571 l 954 191 l 1012 191 l 1012 149 l 954 149 l 954 0 l 898 0 m 731 191 l 898 191 l 903 495 l 731 191 m 245 -21 l 176 -21 l 802 1039 l 870 1039 l 245 -21 m 196 447 l 196 882 q 142 877 166 879 q 94 876 117 876 q 73 876 80 876 q 60 878 66 876 l 60 907 q 167 934 134 909 q 208 1018 201 959 l 250 1018 l 250 447 l 196 447 "},"#":{"x_min":87,"x_max":980,"ha":1068,"o":"m 663 587 l 480 587 l 413 396 l 595 396 l 663 587 m 619 986 l 501 648 l 685 648 l 805 986 l 879 986 l 761 648 l 980 648 l 958 587 l 739 587 l 671 396 l 907 396 l 887 335 l 649 335 l 531 0 l 455 0 l 574 335 l 391 335 l 270 0 l 195 0 l 313 335 l 87 335 l 108 396 l 335 396 l 403 587 l 159 587 l 178 648 l 426 648 l 545 986 l 619 986 "},"Ê":{"x_min":97,"x_max":572,"ha":629,"o":"m 97 0 l 97 1035 l 572 1035 l 572 954 l 191 954 l 191 580 l 533 580 l 533 501 l 191 501 l 191 81 l 572 81 l 572 0 l 97 0 m 163 1121 l 281 1305 l 382 1305 l 501 1121 l 442 1121 l 331 1246 l 221 1121 l 163 1121 "},")":{"x_min":52,"x_max":316,"ha":425,"o":"m 52 -264 q 182 58 138 -103 q 227 385 227 221 q 183 712 227 550 q 52 1035 139 874 l 115 1035 q 265 714 215 876 q 316 385 316 551 q 265 56 316 220 q 115 -264 214 -106 l 52 -264 "},"Å":{"x_min":22,"x_max":678,"ha":701,"o":"m 284 1207 q 303 1160 284 1180 q 350 1141 323 1141 q 397 1160 377 1141 q 418 1207 418 1180 q 397 1254 418 1234 q 350 1275 377 1275 q 303 1255 323 1275 q 284 1207 284 1235 m 223 1207 q 260 1298 223 1261 q 350 1336 297 1336 q 441 1298 403 1336 q 479 1207 479 1260 q 441 1117 479 1154 q 350 1080 403 1080 q 259 1116 296 1080 q 223 1207 223 1153 m 22 0 l 300 1035 l 401 1035 l 678 0 l 590 0 l 503 325 l 191 325 l 102 0 l 22 0 m 206 404 l 485 404 l 346 921 l 206 404 "},"¸":{"x_min":228,"x_max":511,"ha":694,"o":"m 228 -238 q 307 -249 280 -246 q 349 -253 334 -253 q 406 -238 387 -253 q 426 -196 426 -224 q 406 -145 426 -162 q 345 -129 386 -129 q 331 -129 336 -129 q 322 -130 326 -129 l 322 0 l 369 0 l 369 -72 q 474 -102 438 -72 q 511 -191 511 -132 q 470 -283 511 -252 q 351 -315 429 -315 q 300 -310 331 -315 q 228 -298 269 -306 l 228 -238 "},"a":{"x_min":32,"x_max":519,"ha":550,"o":"m 519 -2 q 487 -7 500 -6 q 462 -9 474 -9 q 411 6 431 -9 q 379 56 390 23 q 304 -2 346 17 q 211 -22 262 -22 q 79 33 126 -22 q 32 189 32 89 q 74 330 32 277 q 221 424 116 383 q 280 445 242 432 q 380 536 380 479 l 380 600 q 354 689 380 661 q 268 717 327 717 q 171 681 204 717 q 137 574 139 645 l 58 574 l 58 590 q 115 729 58 677 q 270 781 173 781 q 367 766 328 781 q 430 722 406 752 q 453 674 446 702 q 461 595 461 647 l 461 555 l 461 142 q 471 71 461 84 q 510 57 481 57 l 519 57 l 519 -2 m 378 408 q 159 298 201 340 q 117 189 117 256 q 146 88 117 125 q 228 51 176 51 q 341 106 305 51 q 378 282 378 162 l 378 408 "},"=":{"x_min":172,"x_max":984,"ha":1157,"o":"m 984 318 l 984 262 l 172 262 l 172 318 l 984 318 m 984 564 l 984 510 l 172 510 l 172 564 l 984 564 "},"˚":{"x_min":214,"x_max":483,"ha":694,"o":"m 275 974 q 296 921 275 943 q 348 900 318 900 q 400 921 378 900 q 422 974 422 943 q 400 1025 422 1004 q 348 1047 378 1047 q 296 1025 318 1047 q 275 974 275 1004 m 214 973 q 253 1068 214 1029 q 347 1108 292 1108 q 443 1068 403 1108 q 483 973 483 1029 q 443 878 483 917 q 347 839 404 839 q 253 878 292 839 q 214 973 214 917 "},"ú":{"x_min":85,"x_max":525,"ha":612,"o":"m 168 762 l 168 247 q 193 90 168 126 q 283 54 218 54 q 393 94 344 54 q 442 180 442 134 l 442 762 l 525 762 l 525 0 l 450 0 l 450 83 q 366 5 412 30 q 264 -20 321 -20 q 127 36 170 -20 q 85 220 85 93 l 85 762 l 168 762 m 233 846 l 351 1030 l 461 1030 l 293 846 l 233 846 "},"¯":{"x_min":197,"x_max":497,"ha":694,"o":"m 197 886 l 197 955 l 497 955 l 497 886 l 197 886 "},"Z":{"x_min":35,"x_max":556,"ha":591,"o":"m 35 0 l 35 88 l 464 956 l 59 956 l 59 1035 l 556 1035 l 556 946 l 126 82 l 556 82 l 556 0 l 35 0 "},"u":{"x_min":85,"x_max":525,"ha":612,"o":"m 168 762 l 168 247 q 193 90 168 126 q 283 54 218 54 q 393 94 344 54 q 442 180 442 134 l 442 762 l 525 762 l 525 0 l 450 0 l 450 83 q 366 5 412 30 q 264 -20 321 -20 q 127 36 170 -20 q 85 220 85 93 l 85 762 l 168 762 "},"k":{"x_min":87,"x_max":520,"ha":522,"o":"m 87 0 l 87 1035 l 168 1035 l 168 406 l 417 762 l 512 762 l 305 473 l 520 0 l 432 0 l 251 404 l 168 289 l 168 0 l 87 0 "},"Ù":{"x_min":97,"x_max":663,"ha":760,"o":"m 663 1035 l 663 273 q 590 54 663 130 q 380 -21 518 -21 q 169 54 241 -21 q 97 273 97 129 l 97 1035 l 183 1035 l 183 337 q 189 210 183 246 q 210 148 195 174 q 280 81 236 104 q 380 58 324 58 q 480 81 436 58 q 550 148 525 105 q 570 203 564 172 q 577 290 577 233 l 577 337 l 577 1035 l 663 1035 m 461 1121 l 402 1121 l 234 1305 l 342 1305 l 461 1121 "},"¢":{"x_min":97,"x_max":550,"ha":648,"o":"m 550 280 q 492 81 540 150 q 359 1 445 11 l 359 -179 l 295 -179 l 295 1 q 147 116 198 13 q 97 401 97 218 q 147 683 97 581 q 295 803 197 785 l 295 956 l 359 956 l 359 803 q 488 733 438 797 q 542 567 537 670 l 461 567 q 422 687 457 642 q 331 732 387 732 q 221 647 259 732 q 183 401 183 562 q 222 159 183 244 q 335 75 262 75 q 427 127 393 75 q 468 279 461 179 l 550 280 "},"Ş":{"x_min":62,"x_max":642,"ha":707,"o":"m 62 295 l 149 295 q 204 121 153 183 q 343 60 255 60 q 498 115 442 60 q 555 268 555 171 q 539 350 555 315 q 487 412 523 384 q 365 473 455 439 q 304 497 325 488 q 133 614 184 547 q 83 787 83 681 q 159 979 83 903 q 355 1055 236 1055 q 547 985 477 1055 q 618 793 618 915 l 618 787 l 535 787 q 484 926 529 877 q 361 975 439 975 q 225 920 279 975 q 172 783 172 866 q 183 713 172 745 q 215 654 194 680 q 376 564 251 612 q 410 551 398 556 q 589 436 536 501 q 642 268 642 371 q 564 55 642 133 q 350 -22 486 -22 q 140 60 215 -22 q 62 295 66 142 m 235 -238 q 314 -249 287 -246 q 356 -253 341 -253 q 413 -238 394 -253 q 433 -196 433 -224 q 413 -145 433 -162 q 352 -129 393 -129 q 338 -129 343 -129 q 329 -130 333 -129 l 329 0 l 376 0 l 376 -72 q 481 -102 445 -72 q 518 -191 518 -132 q 477 -283 518 -252 q 358 -315 436 -315 q 307 -310 338 -315 q 235 -298 276 -306 l 235 -238 "},"é":{"x_min":65,"x_max":515,"ha":581,"o":"m 510 245 q 447 47 503 115 q 290 -21 391 -21 q 120 77 175 -21 q 65 379 65 175 q 121 682 65 584 q 296 781 178 781 q 459 697 403 781 q 515 452 515 614 l 515 388 l 152 388 l 152 345 q 186 124 152 197 q 289 52 221 52 q 389 102 353 52 q 429 245 425 152 l 510 245 m 152 457 l 430 457 q 431 473 430 462 q 432 490 432 485 q 396 652 432 595 q 295 710 360 710 q 188 646 225 710 q 152 463 152 583 l 152 457 m 216 846 l 334 1030 l 444 1030 l 276 846 l 216 846 "},"B":{"x_min":97,"x_max":642,"ha":707,"o":"m 97 0 l 97 1035 l 281 1035 q 533 975 457 1035 q 609 780 609 915 q 575 632 609 690 q 474 544 542 574 q 601 450 560 510 q 642 298 642 391 q 562 72 642 145 q 315 0 482 0 l 97 0 m 183 78 l 304 78 q 494 129 437 78 q 552 298 552 181 q 493 451 552 402 q 311 501 435 501 l 183 501 l 183 78 m 183 578 l 307 578 q 470 625 419 578 q 522 777 522 673 q 470 917 522 876 q 294 958 419 958 l 183 958 l 183 578 "},"…":{"x_min":183,"x_max":1206,"ha":1389,"o":"m 183 0 l 183 122 l 279 122 l 279 0 l 183 0 m 646 0 l 646 122 l 742 122 l 742 0 l 646 0 m 1110 0 l 1110 122 l 1206 122 l 1206 0 l 1110 0 "},"H":{"x_min":97,"x_max":679,"ha":777,"o":"m 97 0 l 97 1035 l 183 1035 l 183 597 l 593 597 l 593 1035 l 679 1035 l 679 0 l 593 0 l 593 516 l 183 516 l 183 0 l 97 0 "},"î":{"x_min":-14,"x_max":324,"ha":307,"o":"m 111 0 l 111 762 l 196 762 l 196 0 l 111 0 m -14 846 l 104 1030 l 205 1030 l 324 846 l 265 846 l 154 971 l 44 846 l -14 846 "},"−":{"x_min":172,"x_max":984,"ha":1157,"o":"m 984 442 l 984 386 l 172 386 l 172 442 l 984 442 "},"≠":{"x_min":172,"x_max":984,"ha":1157,"o":"m 867 751 l 720 564 l 984 564 l 984 510 l 685 510 l 537 318 l 984 318 l 984 262 l 502 262 l 329 42 l 288 75 l 434 262 l 172 262 l 172 318 l 467 318 l 617 510 l 172 510 l 172 564 l 652 564 l 824 785 l 867 751 "},"¥":{"x_min":1,"x_max":636,"ha":648,"o":"m 636 1015 l 478 690 l 620 690 l 620 630 l 448 630 l 388 502 l 620 502 l 620 442 l 358 442 l 358 0 l 275 0 l 275 442 l 16 442 l 16 502 l 243 502 l 184 630 l 16 630 l 16 690 l 156 690 l 1 1015 l 92 1015 l 317 528 l 544 1015 l 636 1015 "},"U":{"x_min":97,"x_max":663,"ha":760,"o":"m 663 1035 l 663 273 q 590 54 663 130 q 380 -21 518 -21 q 169 54 241 -21 q 97 273 97 129 l 97 1035 l 183 1035 l 183 337 q 189 210 183 246 q 210 148 195 174 q 280 81 236 104 q 380 58 324 58 q 480 81 436 58 q 550 148 525 105 q 570 203 564 172 q 577 290 577 233 l 577 337 l 577 1035 l 663 1035 "},"Ñ":{"x_min":97,"x_max":672,"ha":770,"o":"m 97 0 l 97 1035 l 195 1035 l 590 132 l 590 1035 l 672 1035 l 672 0 l 571 0 l 179 885 l 179 0 l 97 0 m 559 1270 q 518 1177 546 1207 q 446 1147 491 1147 q 430 1148 438 1147 q 411 1152 421 1149 l 354 1170 q 339 1174 346 1173 q 328 1176 333 1176 q 295 1165 308 1176 q 276 1133 282 1154 l 228 1133 q 267 1223 239 1192 q 337 1254 295 1254 q 355 1252 347 1254 q 371 1248 363 1251 l 422 1231 q 438 1227 430 1228 q 457 1226 447 1226 q 492 1237 478 1226 q 511 1270 506 1248 l 559 1270 "},"F":{"x_min":97,"x_max":572,"ha":612,"o":"m 97 0 l 97 1035 l 572 1035 l 572 954 l 191 954 l 191 580 l 533 580 l 533 501 l 191 501 l 191 0 l 97 0 "},"*":{"x_min":114,"x_max":533,"ha":650,"o":"m 212 642 l 164 679 l 270 823 l 114 877 l 135 939 l 295 876 l 293 1035 l 354 1035 l 354 876 l 512 940 l 533 877 l 374 823 l 487 677 l 440 642 l 322 787 l 212 642 "},"†":{"x_min":57,"x_max":592,"ha":650,"o":"m 289 660 l 57 660 l 57 724 l 289 724 l 289 1035 l 361 1035 l 361 724 l 592 724 l 592 660 l 361 660 l 361 -201 l 289 -201 l 289 660 "},"∕":{"x_min":-232,"x_max":462,"ha":232,"o":"m -162 -21 l -232 -21 l 394 1039 l 462 1039 l -162 -21 "},"°":{"x_min":43,"x_max":414,"ha":457,"o":"m 373 797 q 330 899 373 856 q 228 942 287 942 q 126 899 168 942 q 84 797 84 857 q 126 695 84 737 q 228 653 168 653 q 330 695 288 653 q 373 797 373 737 m 229 983 q 359 928 305 983 q 414 797 414 873 q 359 665 414 719 q 228 612 305 612 q 96 665 150 612 q 43 797 43 719 q 97 928 43 874 q 229 983 152 983 "},"å":{"x_min":32,"x_max":519,"ha":550,"o":"m 519 -2 q 487 -7 500 -6 q 462 -9 474 -9 q 411 6 431 -9 q 379 56 390 23 q 304 -2 346 17 q 210 -22 262 -22 q 79 33 126 -22 q 32 189 32 89 q 74 330 32 277 q 220 424 116 383 q 279 445 242 432 q 380 536 380 479 l 380 600 q 353 689 380 661 q 267 717 327 717 q 171 681 204 717 q 137 574 139 645 l 58 574 l 58 590 q 115 729 58 677 q 270 781 173 781 q 367 766 328 781 q 430 722 406 752 q 453 674 446 702 q 461 595 461 647 l 461 555 l 461 142 q 471 71 461 84 q 510 57 481 57 l 519 57 l 519 -2 m 378 408 q 159 298 201 340 q 117 189 117 256 q 146 88 117 125 q 228 51 176 51 q 341 106 305 51 q 378 282 378 162 l 378 408 m 204 954 q 223 907 204 927 q 269 888 243 888 q 317 907 297 888 q 338 954 338 927 q 317 1001 338 981 q 269 1022 296 1022 q 223 1002 243 1022 q 204 954 204 982 m 143 954 q 180 1045 143 1008 q 270 1083 217 1083 q 361 1045 323 1083 q 399 954 399 1007 q 361 864 399 901 q 270 827 324 827 q 179 863 216 827 q 143 954 143 900 "},"0":{"x_min":68,"x_max":582,"ha":648,"o":"m 157 508 q 195 154 157 253 q 325 56 233 56 q 454 154 416 56 q 492 508 492 252 q 454 862 492 764 q 325 961 416 961 q 195 862 233 961 q 157 508 157 763 m 68 510 q 79 758 68 666 q 115 899 91 850 q 202 1004 150 969 q 325 1039 255 1039 q 447 1003 394 1039 q 533 899 499 968 q 570 753 558 848 q 582 510 582 658 q 570 262 582 356 q 533 118 558 168 q 447 14 499 49 q 325 -21 394 -21 q 202 14 255 -21 q 115 118 150 49 q 79 259 91 167 q 68 510 68 352 "},"":{"x_min":77,"x_max":1021,"ha":1097,"o":"m 567 824 q 566 834 566 828 q 565 849 565 839 q 630 1005 565 934 q 790 1094 694 1077 q 791 1079 791 1087 q 791 1052 791 1070 q 721 893 791 963 q 583 823 651 823 l 578 823 q 573 824 576 823 q 567 824 570 824 m 1021 273 q 881 40 943 105 q 743 -24 820 -24 q 654 -1 709 -24 q 571 20 599 20 q 482 -1 540 20 q 396 -24 424 -24 q 309 5 353 -24 q 221 95 265 35 q 114 295 152 190 q 77 499 77 401 q 161 741 77 648 q 380 835 246 835 q 485 811 426 835 q 569 788 544 788 q 652 812 592 788 q 755 836 711 836 q 889 809 830 836 q 999 725 949 782 q 896 626 929 680 q 863 502 863 571 q 903 366 863 425 q 1021 273 944 307 "},"”":{"x_min":114,"x_max":423,"ha":538,"o":"m 328 913 l 328 1035 l 423 1035 l 423 914 q 400 785 423 831 q 328 722 377 740 l 328 776 q 365 816 353 791 q 377 881 377 840 q 376 900 377 893 q 375 912 376 906 l 328 913 m 114 913 l 114 1035 l 210 1035 l 210 914 q 186 786 210 832 q 114 722 163 740 l 114 776 q 152 816 140 791 q 165 883 165 842 q 164 901 165 895 q 163 912 164 906 l 114 913 "},"ö":{"x_min":65,"x_max":554,"ha":621,"o":"m 152 379 q 191 135 152 217 q 309 53 231 53 q 427 135 387 53 q 468 379 468 218 q 427 623 468 540 q 309 706 387 706 q 191 623 231 706 q 152 379 152 541 m 65 379 q 126 680 65 580 q 309 781 187 781 q 492 680 431 781 q 554 379 554 580 q 493 78 554 178 q 309 -21 432 -21 q 125 78 186 -21 q 65 379 65 178 m 182 875 l 182 978 l 260 978 l 260 875 l 182 875 m 360 875 l 360 978 l 438 978 l 438 875 l 360 875 "},"Õ":{"x_min":77,"x_max":688,"ha":764,"o":"m 166 518 q 218 172 166 284 q 382 60 271 60 q 545 171 492 60 q 598 518 598 282 q 545 864 598 753 q 382 976 492 976 q 218 863 271 976 q 166 518 166 751 m 77 518 q 150 925 77 795 q 382 1055 224 1055 q 614 925 540 1055 q 688 518 688 796 q 613 109 688 240 q 382 -21 539 -21 q 151 109 225 -21 q 77 518 77 240 m 548 1270 q 507 1177 535 1207 q 435 1147 480 1147 q 419 1148 427 1147 q 400 1152 410 1149 l 343 1170 q 328 1174 335 1173 q 317 1176 322 1176 q 284 1165 297 1176 q 265 1133 271 1154 l 217 1133 q 256 1223 228 1192 q 326 1254 284 1254 q 344 1252 336 1254 q 360 1248 352 1251 l 411 1231 q 427 1227 419 1228 q 446 1226 436 1226 q 481 1237 467 1226 q 500 1270 495 1248 l 548 1270 "},"ć":{"x_min":82,"x_max":533,"ha":589,"o":"m 533 260 q 467 50 524 121 q 312 -21 411 -21 q 140 81 199 -21 q 82 380 82 183 q 141 681 82 580 q 316 782 200 782 q 464 719 409 782 q 525 546 520 656 l 446 546 q 408 664 443 620 q 319 708 374 708 q 207 623 246 708 q 168 380 168 539 q 207 139 168 225 q 316 53 246 53 q 411 107 375 53 q 452 260 446 161 l 533 260 m 241 846 l 359 1030 l 469 1030 l 301 846 l 241 846 "},"þ":{"x_min":90,"x_max":565,"ha":632,"o":"m 171 378 q 206 123 171 198 q 323 49 242 49 q 440 129 402 49 q 478 382 478 210 q 442 633 478 554 q 330 712 406 712 q 207 636 244 712 q 171 378 171 561 m 90 -264 l 90 1035 l 171 1035 l 171 681 q 244 756 204 732 q 336 781 284 781 q 509 685 454 781 q 565 381 565 590 q 507 76 565 176 q 331 -24 449 -24 q 238 -1 277 -24 q 171 68 198 20 l 171 -264 l 90 -264 "},"]":{"x_min":45,"x_max":261,"ha":425,"o":"m 261 -264 l 45 -264 l 45 -195 l 178 -195 l 178 966 l 45 966 l 45 1035 l 261 1035 l 261 -264 "},"8":{"x_min":68,"x_max":581,"ha":648,"o":"m 211 554 q 127 644 155 590 q 100 774 100 698 q 159 968 100 898 q 325 1039 219 1039 q 490 968 430 1039 q 550 774 550 898 q 522 646 550 700 q 437 554 495 591 q 545 456 509 523 q 581 290 581 390 q 514 60 581 142 q 325 -21 447 -21 q 135 60 203 -21 q 68 290 68 142 q 104 456 68 390 q 211 554 140 523 m 460 779 q 424 915 460 867 q 325 964 389 964 q 225 915 261 964 q 190 779 190 866 q 225 638 190 689 q 325 588 261 588 q 424 638 388 588 q 460 779 460 688 m 492 290 q 446 455 492 393 q 325 517 400 517 q 203 455 249 517 q 157 291 157 394 q 201 120 157 183 q 319 57 245 57 q 446 118 401 57 q 492 290 492 179 "},"R":{"x_min":94,"x_max":658,"ha":707,"o":"m 94 0 l 94 1035 l 296 1035 q 543 972 464 1035 q 622 776 622 909 q 584 615 622 677 q 467 523 546 553 q 567 454 536 503 q 605 295 598 405 q 609 204 607 263 q 658 0 615 42 l 557 0 q 526 189 532 29 q 523 258 524 233 q 478 439 516 397 q 343 482 441 482 l 181 482 l 181 0 l 94 0 m 181 558 l 269 558 q 475 606 414 558 q 536 766 536 654 q 478 912 536 866 q 293 958 420 958 l 181 958 l 181 558 "},"o":{"x_min":65,"x_max":554,"ha":621,"o":"m 152 379 q 191 135 152 217 q 309 53 231 53 q 427 135 387 53 q 468 379 468 218 q 427 623 468 540 q 309 706 387 706 q 191 623 231 706 q 152 379 152 541 m 65 379 q 126 680 65 580 q 309 781 187 781 q 492 680 431 781 q 554 379 554 580 q 493 78 554 178 q 309 -21 432 -21 q 125 78 186 -21 q 65 379 65 178 "},"5":{"x_min":70,"x_max":579,"ha":648,"o":"m 70 256 l 153 256 q 201 106 162 156 q 308 57 240 57 q 443 133 395 57 q 492 349 492 210 q 446 534 492 468 q 322 601 401 601 q 230 574 270 601 q 167 499 190 547 l 94 499 l 157 1019 l 540 1019 l 540 938 l 227 938 l 187 618 q 260 659 222 646 q 340 673 298 673 q 514 587 449 673 q 579 355 579 502 q 509 75 579 171 q 308 -21 440 -21 q 137 52 200 -21 q 70 256 74 125 "},"õ":{"x_min":65,"x_max":554,"ha":621,"o":"m 152 379 q 191 135 152 217 q 309 53 231 53 q 427 135 387 53 q 468 379 468 218 q 427 623 468 540 q 309 706 387 706 q 191 623 231 706 q 152 379 152 541 m 65 379 q 126 680 65 580 q 309 781 187 781 q 492 680 431 781 q 554 379 554 580 q 493 78 554 178 q 309 -21 432 -21 q 125 78 186 -21 q 65 379 65 178 m 477 995 q 436 902 464 932 q 364 872 409 872 q 348 873 356 872 q 329 877 339 874 l 272 895 q 257 899 264 898 q 246 901 251 901 q 213 890 226 901 q 194 858 200 879 l 146 858 q 185 948 157 917 q 255 979 213 979 q 273 977 265 979 q 289 973 281 976 l 340 956 q 356 952 348 953 q 375 951 365 951 q 410 962 396 951 q 429 995 424 973 l 477 995 "},",":{"x_min":114,"x_max":210,"ha":325,"o":"m 114 0 l 114 122 l 210 122 l 210 0 q 186 -127 210 -80 q 114 -192 163 -173 l 114 -137 q 152 -96 140 -122 q 165 -29 165 -70 q 164 -11 165 -16 q 162 0 164 -5 l 114 0 "},"d":{"x_min":65,"x_max":540,"ha":632,"o":"m 459 382 q 423 636 459 561 q 306 712 387 712 q 189 631 226 712 q 152 379 152 551 q 187 126 152 203 q 303 49 223 49 q 422 125 386 49 q 459 382 459 201 m 540 1035 l 540 0 l 459 0 l 459 79 q 385 3 425 27 q 293 -21 345 -21 q 119 74 174 -21 q 65 379 65 170 q 122 684 65 584 q 297 785 180 785 q 390 762 351 785 q 459 692 430 739 l 459 1035 l 540 1035 "},"\"":{"x_min":68,"x_max":305,"ha":374,"o":"m 305 973 l 305 598 l 247 598 l 247 973 l 305 973 m 126 973 l 126 598 l 68 598 l 68 973 l 126 973 "},"˙":{"x_min":293,"x_max":402,"ha":694,"o":"m 293 868 l 293 987 l 402 987 l 402 868 l 293 868 "},"ê":{"x_min":65,"x_max":515,"ha":581,"o":"m 510 245 q 447 47 503 115 q 290 -21 391 -21 q 120 77 175 -21 q 65 379 65 175 q 121 682 65 584 q 296 781 178 781 q 459 697 403 781 q 515 452 515 614 l 515 388 l 152 388 l 152 345 q 186 124 152 197 q 289 52 221 52 q 389 102 353 52 q 429 245 425 152 l 510 245 m 152 457 l 430 457 q 431 473 430 462 q 432 490 432 485 q 396 652 432 595 q 295 710 360 710 q 188 646 225 710 q 152 463 152 583 l 152 457 m 122 846 l 240 1030 l 341 1030 l 460 846 l 401 846 l 290 971 l 180 846 l 122 846 "},"„":{"x_min":114,"x_max":423,"ha":538,"o":"m 328 0 l 328 122 l 423 122 l 423 1 q 400 -127 423 -81 q 328 -192 377 -173 l 328 -137 q 365 -97 353 -122 q 377 -30 377 -71 q 376 -12 377 -18 q 374 0 376 -6 l 328 0 m 114 0 l 114 122 l 210 122 l 210 1 q 186 -126 210 -80 q 114 -192 163 -173 l 114 -137 q 152 -96 140 -122 q 165 -29 165 -70 q 164 -11 165 -16 q 162 0 164 -5 l 114 0 "},"Â":{"x_min":22,"x_max":678,"ha":701,"o":"m 22 0 l 300 1035 l 402 1035 l 678 0 l 590 0 l 503 325 l 191 325 l 102 0 l 22 0 m 206 404 l 485 404 l 346 921 l 206 404 m 183 1121 l 301 1305 l 402 1305 l 521 1121 l 462 1121 l 351 1246 l 241 1121 l 183 1121 "},"Í":{"x_min":70,"x_max":298,"ha":288,"o":"m 100 0 l 100 1035 l 187 1035 l 187 0 l 100 0 m 70 1121 l 188 1305 l 298 1305 l 130 1121 l 70 1121 "},"´":{"x_min":273,"x_max":501,"ha":694,"o":"m 273 846 l 391 1030 l 501 1030 l 333 846 l 273 846 "},"Ú":{"x_min":97,"x_max":663,"ha":760,"o":"m 663 1035 l 663 273 q 590 54 663 130 q 380 -21 518 -21 q 169 54 241 -21 q 97 273 97 129 l 97 1035 l 183 1035 l 183 337 q 189 210 183 246 q 210 148 195 174 q 280 81 236 104 q 380 58 324 58 q 480 81 436 58 q 550 148 525 105 q 570 203 564 172 q 577 290 577 233 l 577 337 l 577 1035 l 663 1035 m 306 1121 l 424 1305 l 534 1305 l 366 1121 l 306 1121 "},"Ý":{"x_min":1,"x_max":637,"ha":637,"o":"m 273 0 l 273 441 l 1 1035 l 92 1035 l 314 547 l 540 1035 l 637 1035 l 359 441 l 359 0 l 273 0 m 245 1121 l 363 1305 l 473 1305 l 305 1121 l 245 1121 "},"Ω":{"x_min":87,"x_max":987,"ha":1075,"o":"m 984 82 l 984 0 l 595 0 l 595 69 q 818 277 743 161 q 893 533 893 394 q 793 830 893 715 q 537 945 694 945 q 280 830 380 945 q 181 533 181 715 q 255 277 181 394 q 479 69 330 161 l 479 0 l 91 0 l 91 82 l 331 82 q 146 282 206 171 q 87 532 87 393 q 214 886 87 747 q 537 1026 342 1026 q 859 886 731 1026 q 987 532 987 747 q 926 282 987 393 q 742 82 866 171 l 984 82 "},"Ö":{"x_min":77,"x_max":688,"ha":764,"o":"m 166 518 q 218 172 166 284 q 382 60 271 60 q 545 171 492 60 q 598 518 598 282 q 545 864 598 753 q 382 976 492 976 q 218 863 271 976 q 166 518 166 751 m 77 518 q 150 925 77 795 q 382 1055 224 1055 q 614 925 540 1055 q 688 518 688 796 q 613 109 688 240 q 382 -21 539 -21 q 151 109 225 -21 q 77 518 77 240 m 253 1150 l 253 1253 l 331 1253 l 331 1150 l 253 1150 m 431 1150 l 431 1253 l 509 1253 l 509 1150 l 431 1150 "},"z":{"x_min":32,"x_max":440,"ha":472,"o":"m 32 0 l 32 72 l 351 691 l 50 691 l 50 762 l 440 762 l 440 682 l 120 72 l 440 72 l 440 0 l 32 0 "},"™":{"x_min":186,"x_max":925,"ha":1157,"o":"m 627 986 l 745 687 l 855 986 l 925 986 l 925 627 l 885 627 l 885 951 l 762 627 l 729 627 l 600 951 l 600 627 l 559 627 l 559 986 l 627 986 m 470 986 l 470 951 l 352 951 l 352 627 l 307 627 l 307 951 l 186 951 l 186 986 l 470 986 "},"ã":{"x_min":32,"x_max":519,"ha":550,"o":"m 519 -2 q 487 -7 500 -6 q 462 -9 474 -9 q 411 6 431 -9 q 379 56 390 23 q 304 -2 346 17 q 211 -22 262 -22 q 79 33 126 -22 q 32 189 32 89 q 74 330 32 277 q 221 424 116 383 q 280 445 242 432 q 380 536 380 479 l 380 600 q 354 689 380 661 q 268 717 327 717 q 171 681 204 717 q 137 574 139 645 l 58 574 l 58 590 q 115 729 58 677 q 270 781 173 781 q 367 766 328 781 q 430 722 406 752 q 453 674 446 702 q 461 595 461 647 l 461 555 l 461 142 q 471 71 461 84 q 510 57 481 57 l 519 57 l 519 -2 m 378 408 q 159 298 201 340 q 117 189 117 256 q 146 88 117 125 q 228 51 176 51 q 341 106 305 51 q 378 282 378 162 l 378 408 m 441 995 q 400 902 428 932 q 328 872 373 872 q 312 873 320 872 q 293 877 303 874 l 236 895 q 221 899 228 898 q 210 901 215 901 q 177 890 190 901 q 158 858 164 879 l 110 858 q 149 948 121 917 q 219 979 177 979 q 237 977 229 979 q 253 973 245 976 l 304 956 q 320 952 312 953 q 339 951 329 951 q 374 962 360 951 q 393 995 388 973 l 441 995 "},"æ":{"x_min":32,"x_max":820,"ha":895,"o":"m 459 456 l 736 456 q 737 472 737 463 q 738 497 738 481 q 702 654 738 598 q 602 710 667 710 q 495 646 532 710 q 459 462 459 583 l 459 456 m 444 705 q 514 763 477 745 q 598 782 551 782 q 762 696 705 782 q 820 451 820 611 l 820 387 l 459 387 l 459 344 q 493 124 459 197 q 596 51 527 51 q 695 101 659 51 q 735 244 732 152 l 817 244 q 752 47 810 116 q 596 -22 695 -22 q 479 11 524 -22 q 407 119 434 45 q 335 13 383 49 q 215 -22 287 -22 q 80 33 128 -22 q 32 190 32 89 q 75 330 32 276 q 221 425 119 385 q 280 446 242 434 q 380 537 380 480 l 380 601 q 354 690 380 662 q 268 718 327 718 q 171 682 204 718 q 137 575 139 646 l 58 575 l 58 591 q 115 730 58 678 q 270 782 173 782 q 380 762 337 782 q 444 705 423 743 m 378 408 q 159 297 201 339 q 117 189 117 255 q 146 87 117 124 q 228 51 176 51 q 341 107 304 51 q 378 283 378 163 l 378 408 "},"É":{"x_min":97,"x_max":572,"ha":629,"o":"m 97 0 l 97 1035 l 572 1035 l 572 954 l 191 954 l 191 580 l 533 580 l 533 501 l 191 501 l 191 81 l 572 81 l 572 0 l 97 0 m 257 1121 l 375 1305 l 485 1305 l 317 1121 l 257 1121 "},"~":{"x_min":121,"x_max":1038,"ha":1157,"o":"m 1038 438 q 900 363 966 388 q 775 339 835 339 q 595 380 708 339 q 580 385 584 384 q 557 393 572 388 q 383 434 444 434 q 264 408 327 434 q 121 325 202 383 l 121 388 q 257 462 192 438 q 383 487 322 487 q 567 445 451 487 q 580 441 575 442 q 598 434 585 438 q 775 393 712 393 q 894 418 831 393 q 1038 500 956 443 l 1038 438 "},"³":{"x_min":46,"x_max":384,"ha":428,"o":"m 46 571 l 101 571 q 131 476 102 510 q 210 443 159 443 q 294 478 263 443 q 326 575 326 514 q 291 673 326 642 q 181 705 256 705 l 152 705 l 152 751 l 156 751 q 273 782 235 751 q 311 878 311 813 q 284 957 311 929 q 212 985 258 985 q 142 955 167 985 q 117 870 117 925 l 117 868 l 62 868 q 102 988 64 946 q 210 1031 141 1031 q 322 989 280 1031 q 365 878 365 948 q 341 790 365 827 q 274 732 318 753 q 357 676 330 715 q 384 576 384 638 q 337 444 384 492 q 209 396 290 396 q 90 442 133 396 q 46 571 46 488 "},"¡":{"x_min":113,"x_max":205,"ha":318,"o":"m 183 790 l 205 0 l 113 0 l 131 790 l 183 790 m 205 1035 l 205 917 l 113 917 l 113 1035 l 205 1035 "},"[":{"x_min":165,"x_max":379,"ha":425,"o":"m 165 -264 l 165 1035 l 379 1035 l 379 966 l 245 966 l 245 -195 l 379 -195 l 379 -264 l 165 -264 "},"%":{"x_min":68,"x_max":861,"ha":929,"o":"m 680 440 q 601 392 627 440 q 575 250 575 345 q 600 107 575 154 q 680 61 626 61 q 759 108 732 61 q 786 250 786 155 q 759 392 786 345 q 680 440 732 440 m 680 501 q 813 434 765 501 q 861 250 861 368 q 813 65 861 130 q 680 0 766 0 q 547 65 594 0 q 500 250 500 130 q 547 435 500 369 q 680 501 594 501 m 249 974 q 169 926 196 974 q 143 784 143 878 q 169 641 143 688 q 249 595 196 595 q 328 641 302 595 q 354 784 354 688 q 328 927 354 880 q 249 974 302 974 m 68 784 q 115 969 68 903 q 248 1035 163 1035 q 381 969 334 1035 q 429 784 429 903 q 381 599 429 665 q 248 534 334 534 q 115 600 163 534 q 68 784 68 666 m 221 -19 l 644 1055 l 707 1055 l 286 -19 l 221 -19 "},"P":{"x_min":98,"x_max":632,"ha":686,"o":"m 98 0 l 98 1035 l 295 1035 q 460 1022 409 1035 q 548 978 512 1009 q 610 888 589 943 q 632 762 632 833 q 548 538 632 604 q 253 472 464 472 l 181 472 l 181 0 l 98 0 m 181 551 l 308 551 q 407 559 372 551 q 470 585 442 567 q 527 651 508 610 q 546 753 546 693 q 492 913 546 869 q 281 958 439 958 l 181 958 l 181 551 "},"∏":{"x_min":111,"x_max":900,"ha":1011,"o":"m 111 999 l 900 999 l 900 -266 l 808 -266 l 808 916 l 203 916 l 203 -266 l 111 -266 l 111 999 "},"_":{"x_min":0,"x_max":694,"ha":694,"o":"m 694 -274 l 694 -328 l 0 -328 l 0 -274 l 694 -274 "},"ñ":{"x_min":87,"x_max":527,"ha":612,"o":"m 444 0 l 444 514 q 418 671 444 634 q 328 708 393 708 q 218 667 267 708 q 170 581 170 627 l 170 0 l 87 0 l 87 762 l 161 762 l 161 678 q 245 757 199 732 q 347 782 290 782 q 484 724 441 782 q 527 540 527 667 l 527 0 l 444 0 m 481 995 q 440 902 468 932 q 368 872 413 872 q 352 873 360 872 q 333 877 343 874 l 276 895 q 261 899 268 898 q 250 901 255 901 q 217 890 230 901 q 198 858 204 879 l 150 858 q 189 948 161 917 q 259 979 217 979 q 277 977 269 979 q 293 973 285 976 l 344 956 q 360 952 352 953 q 379 951 369 951 q 414 962 400 951 q 433 995 428 973 l 481 995 "},"‚":{"x_min":114,"x_max":210,"ha":325,"o":"m 114 0 l 114 122 l 210 122 l 210 1 q 186 -126 210 -80 q 114 -192 163 -173 l 114 -137 q 152 -96 140 -122 q 165 -29 165 -70 q 164 -11 165 -16 q 162 0 164 -5 l 114 0 "},"Æ":{"x_min":18,"x_max":962,"ha":1019,"o":"m 487 0 l 487 315 l 222 315 l 110 0 l 18 0 l 395 1035 l 962 1035 l 962 953 l 580 953 l 580 583 l 922 583 l 922 501 l 580 501 l 580 81 l 962 81 l 962 0 l 487 0 m 487 401 l 487 953 l 442 953 l 247 401 l 487 401 "},"₣":{"x_min":97,"x_max":962,"ha":986,"o":"m 97 0 l 97 1035 l 572 1035 l 572 954 l 191 954 l 191 580 l 533 580 l 533 501 l 191 501 l 191 0 l 97 0 m 699 0 l 699 762 l 780 762 l 780 679 q 846 750 805 727 q 947 774 886 774 l 962 774 l 962 692 q 818 638 857 687 q 780 441 780 589 l 780 0 l 699 0 "},"ğ":{"x_min":65,"x_max":540,"ha":632,"o":"m 459 379 q 422 636 459 559 q 303 713 386 713 q 187 635 223 713 q 152 381 152 557 q 189 130 152 210 q 306 50 226 50 q 423 125 387 50 q 459 379 459 200 m 459 67 q 391 -1 431 21 q 297 -24 352 -24 q 122 76 180 -24 q 65 381 65 176 q 119 686 65 590 q 293 782 174 782 q 385 757 345 782 q 459 682 425 733 l 459 761 l 540 761 l 540 51 q 484 -194 540 -124 q 292 -264 428 -264 q 150 -214 207 -264 q 88 -86 93 -165 l 169 -86 q 213 -164 177 -137 q 310 -191 248 -191 q 421 -140 383 -191 q 459 7 459 -89 l 459 67 m 153 1019 l 200 1019 q 234 953 206 974 q 315 932 261 932 q 396 952 369 932 q 430 1019 423 973 l 477 1019 q 430 894 469 933 q 315 856 391 856 q 199 895 239 856 q 153 1019 160 934 "},"ª":{"x_min":24,"x_max":390,"ha":412,"o":"m 390 500 q 381 499 386 499 q 347 495 358 495 q 308 506 324 495 q 285 541 293 518 q 229 500 261 514 q 158 487 197 487 q 59 526 95 487 q 24 634 24 565 q 55 732 24 694 q 166 800 87 770 q 210 814 181 805 q 286 877 286 838 l 286 922 q 266 984 286 965 q 201 1004 246 1004 q 129 978 153 1004 q 103 904 104 953 l 45 904 l 45 916 q 87 1012 45 977 q 202 1048 130 1048 q 275 1038 246 1048 q 323 1008 305 1028 q 340 976 335 994 q 346 919 346 957 l 346 891 l 346 600 q 353 551 346 561 q 383 542 361 542 l 390 542 l 390 500 m 284 788 q 120 711 152 740 q 88 634 88 681 q 110 563 88 589 q 171 537 132 537 q 256 576 229 537 q 284 699 284 615 l 284 788 "},"Œ":{"x_min":77,"x_max":1014,"ha":1071,"o":"m 539 258 l 539 785 q 488 919 539 862 q 369 976 438 976 q 216 863 266 976 q 167 518 167 750 q 218 173 167 287 q 375 60 270 60 q 490 118 442 60 q 539 258 539 176 m 539 0 l 539 86 q 465 5 509 31 q 356 -21 421 -21 q 147 113 217 -21 q 77 518 77 248 q 150 922 77 787 q 373 1057 224 1057 q 478 1029 434 1057 q 539 955 522 1002 l 539 1035 l 1014 1035 l 1014 954 l 632 954 l 632 580 l 974 580 l 974 501 l 632 501 l 632 81 l 1014 81 l 1014 0 l 539 0 "},"T":{"x_min":17,"x_max":578,"ha":595,"o":"m 253 0 l 253 952 l 17 952 l 17 1035 l 578 1035 l 578 952 l 343 952 l 343 0 l 253 0 "},"š":{"x_min":53,"x_max":494,"ha":547,"o":"m 53 207 l 131 207 q 166 91 131 131 q 270 51 202 51 q 373 88 335 51 q 411 191 411 126 q 242 375 411 288 q 216 388 225 384 q 97 479 126 436 q 69 597 69 522 q 120 731 69 680 q 256 782 172 782 q 412 729 359 782 q 469 571 464 676 l 393 571 q 352 678 383 643 q 266 713 321 713 q 178 682 210 713 q 146 599 146 651 q 330 415 146 510 q 363 398 352 404 q 460 313 426 366 q 494 192 494 259 q 433 36 494 95 q 271 -22 372 -22 q 109 35 166 -22 q 53 200 53 93 l 53 207 m 105 1030 l 163 1030 l 273 904 l 384 1030 l 443 1030 l 324 846 l 223 846 l 105 1030 "},"Þ":{"x_min":98,"x_max":630,"ha":686,"o":"m 181 344 l 307 344 q 406 352 371 344 q 469 378 441 360 q 526 444 507 403 q 545 546 545 486 q 492 706 545 662 q 281 751 439 751 l 181 751 l 181 344 m 98 0 l 98 1035 l 181 1035 l 181 828 l 294 828 q 460 814 408 828 q 547 771 511 801 q 609 680 589 735 q 630 547 630 625 q 544 330 630 395 q 253 265 459 265 l 181 265 l 181 0 l 98 0 "},"j":{"x_min":46,"x_max":221,"ha":328,"o":"m 216 -77 q 185 -227 216 -189 q 73 -265 155 -265 q 60 -264 69 -265 q 46 -263 50 -263 l 46 -185 q 52 -186 48 -186 q 73 -189 66 -188 q 119 -167 106 -189 q 132 -59 132 -146 l 132 -39 l 132 762 l 216 762 l 216 -77 m 129 902 l 129 1034 l 221 1034 l 221 902 l 129 902 "},"1":{"x_min":94,"x_max":396,"ha":648,"o":"m 311 0 l 310 778 q 231 769 270 772 q 149 766 191 766 q 116 766 127 766 q 94 768 104 766 l 94 820 q 265 869 211 824 q 330 1019 319 915 l 396 1019 l 396 0 l 311 0 "},"›":{"x_min":79,"x_max":282,"ha":359,"o":"m 282 425 l 282 336 l 79 186 l 79 268 l 229 380 l 79 494 l 79 577 l 282 425 "},"<":{"x_min":179,"x_max":978,"ha":1157,"o":"m 978 700 l 269 413 l 978 125 l 978 66 l 179 392 l 179 434 l 978 762 l 978 700 "},"t":{"x_min":29,"x_max":289,"ha":319,"o":"m 289 -4 q 260 -9 274 -7 q 226 -11 245 -11 q 131 21 156 -11 q 106 182 106 54 l 106 694 l 29 694 l 29 762 l 106 762 l 106 978 l 186 978 l 186 762 l 289 762 l 289 694 l 186 694 l 186 166 q 199 71 186 89 q 249 54 212 54 q 266 55 256 54 q 289 58 276 56 l 289 -4 "},"¬":{"x_min":172,"x_max":984,"ha":1157,"o":"m 984 581 l 984 241 l 931 241 l 931 525 l 172 525 l 172 581 l 984 581 "},"ù":{"x_min":85,"x_max":525,"ha":612,"o":"m 168 762 l 168 247 q 193 90 168 126 q 283 54 218 54 q 393 94 344 54 q 442 180 442 134 l 442 762 l 525 762 l 525 0 l 450 0 l 450 83 q 366 5 412 30 q 264 -20 321 -20 q 127 36 170 -20 q 85 220 85 93 l 85 762 l 168 762 m 388 846 l 329 846 l 161 1030 l 269 1030 l 388 846 "},"ï":{"x_min":25,"x_max":281,"ha":307,"o":"m 111 0 l 111 762 l 196 762 l 196 0 l 111 0 m 25 875 l 25 978 l 103 978 l 103 875 l 25 875 m 203 875 l 203 978 l 281 978 l 281 875 l 203 875 "},"Ò":{"x_min":77,"x_max":688,"ha":764,"o":"m 166 518 q 218 172 166 284 q 382 60 271 60 q 545 171 492 60 q 598 518 598 282 q 545 864 598 753 q 382 976 492 976 q 218 863 271 976 q 166 518 166 751 m 77 518 q 150 925 77 795 q 382 1055 224 1055 q 614 925 540 1055 q 688 518 688 796 q 613 109 688 240 q 382 -21 539 -21 q 151 109 225 -21 q 77 518 77 240 m 463 1121 l 404 1121 l 236 1305 l 344 1305 l 463 1121 "},"&":{"x_min":78,"x_max":782,"ha":855,"o":"m 569 170 l 331 519 q 206 404 248 467 q 165 269 165 342 q 222 117 165 177 q 367 58 279 58 q 479 86 428 58 q 569 170 530 115 m 686 0 l 616 99 q 500 9 564 39 q 358 -20 436 -20 q 155 57 232 -20 q 78 259 78 134 q 126 424 78 348 q 287 586 174 501 q 204 722 230 661 q 179 845 179 784 q 229 983 179 931 q 365 1036 280 1036 q 510 987 458 1036 q 562 854 562 939 q 522 706 562 774 q 398 572 483 639 l 610 254 q 641 355 630 303 q 653 464 651 408 l 733 464 q 713 311 730 381 q 662 180 695 241 l 782 0 l 686 0 m 350 634 q 447 734 416 683 q 479 845 479 786 q 450 933 479 901 q 370 965 421 965 q 292 933 322 965 q 262 849 262 901 q 283 751 262 802 q 350 634 304 699 "},"":{"x_min":-26,"x_max":586,"ha":648,"o":"m 497 347 l 586 347 q 512 72 575 166 q 335 -21 448 -21 q 150 82 215 -21 q 75 391 85 185 l -4 391 l 22 451 l 72 451 l 72 487 l 72 527 l 72 583 l -26 583 l 0 643 l 75 643 q 149 951 84 847 q 334 1055 215 1055 q 510 969 445 1055 q 579 735 575 884 l 492 735 q 447 914 488 850 q 335 979 405 979 q 216 892 259 979 q 168 643 174 806 l 426 643 l 401 583 l 165 583 q 164 550 165 572 q 164 517 164 528 q 164 484 164 507 q 165 451 165 462 l 350 451 l 324 391 l 166 391 q 216 141 173 226 q 334 57 259 57 q 448 132 406 57 q 497 347 490 208 "},"˝":{"x_min":221,"x_max":585,"ha":694,"o":"m 384 846 l 481 1030 l 585 1030 l 436 846 l 384 846 m 221 846 l 299 1030 l 397 1030 l 267 846 l 221 846 "},"I":{"x_min":100,"x_max":187,"ha":288,"o":"m 100 0 l 100 1035 l 187 1035 l 187 0 l 100 0 "},"G":{"x_min":77,"x_max":674,"ha":765,"o":"m 364 513 l 674 513 l 674 0 l 605 0 l 596 106 q 500 11 555 44 q 378 -21 444 -21 q 150 110 224 -21 q 77 518 77 242 q 151 927 77 798 q 387 1057 226 1057 q 583 979 511 1057 q 667 756 655 901 l 580 756 q 517 918 568 861 q 386 976 467 976 q 220 865 273 976 q 167 518 167 754 q 219 171 167 282 q 382 60 272 60 q 541 155 487 60 q 595 440 595 251 l 364 440 l 364 513 "},"`":{"x_min":201,"x_max":428,"ha":694,"o":"m 428 846 l 369 846 l 201 1030 l 309 1030 l 428 846 "},"·":{"x_min":106,"x_max":219,"ha":325,"o":"m 106 472 q 122 512 106 496 q 163 529 138 529 q 203 512 187 529 q 219 472 219 496 q 202 431 219 448 q 163 415 185 415 q 122 431 139 415 q 106 472 106 448 "},"¿":{"x_min":50,"x_max":523,"ha":550,"o":"m 355 1035 l 355 910 l 261 910 l 261 1035 l 355 1035 m 343 784 q 345 768 344 776 q 345 745 345 760 q 327 616 345 673 q 266 500 309 559 q 234 458 256 485 q 139 236 139 338 q 176 103 139 149 q 286 57 214 57 q 400 109 361 57 q 440 262 440 161 l 440 272 l 523 272 l 523 250 q 459 50 523 122 q 285 -21 396 -21 q 113 45 177 -21 q 50 225 50 111 q 55 291 50 259 q 73 356 61 324 q 175 515 92 407 q 216 568 202 549 q 258 659 244 606 q 271 784 271 712 l 343 784 "},"ý":{"x_min":31,"x_max":523,"ha":549,"o":"m 293 -66 q 218 -223 261 -182 q 96 -265 175 -265 q 75 -263 86 -265 q 43 -258 63 -262 l 43 -186 q 64 -191 54 -190 q 85 -193 74 -193 q 186 -141 149 -193 q 223 -2 223 -89 q 209 77 223 25 q 207 86 208 83 l 31 762 l 113 762 l 271 148 l 439 762 l 523 762 l 293 -66 m 201 846 l 319 1030 l 429 1030 l 261 846 l 201 846 "},"º":{"x_min":49,"x_max":415,"ha":465,"o":"m 115 768 q 144 598 115 655 q 231 541 174 541 q 320 598 290 541 q 351 768 351 655 q 320 938 351 880 q 231 996 290 996 q 144 938 174 996 q 115 768 115 880 m 49 768 q 94 977 49 907 q 232 1048 140 1048 q 369 978 323 1048 q 415 768 415 908 q 369 558 415 627 q 232 489 324 489 q 94 558 139 489 q 49 768 49 627 "},"∞":{"x_min":161,"x_max":995,"ha":1157,"o":"m 602 377 q 687 273 638 307 q 796 239 735 239 q 916 291 869 239 q 963 426 963 344 q 919 559 963 507 q 811 612 876 612 q 704 559 752 612 q 602 377 657 507 m 554 454 q 471 557 519 523 q 360 592 422 592 q 240 539 286 592 q 194 405 194 487 q 237 273 194 325 q 345 221 280 221 q 452 272 404 221 q 554 454 499 323 m 566 483 q 665 623 611 577 q 785 669 719 669 q 934 597 873 669 q 995 417 995 525 q 940 236 995 305 q 798 168 886 168 q 686 209 734 168 q 589 345 637 250 q 488 207 541 251 q 371 164 436 164 q 222 236 283 164 q 161 414 161 308 q 215 596 161 527 q 357 665 269 665 q 474 621 423 665 q 566 483 524 577 "},";":{"x_min":114,"x_max":210,"ha":325,"o":"m 118 602 l 118 717 l 210 717 l 210 602 l 118 602 m 114 0 l 114 122 l 210 122 l 210 1 q 186 -126 210 -80 q 114 -192 163 -173 l 114 -137 q 152 -96 140 -122 q 165 -29 165 -70 q 164 -11 165 -16 q 162 0 164 -5 l 114 0 "},"6":{"x_min":66,"x_max":581,"ha":648,"o":"m 161 557 q 245 631 201 607 q 341 656 289 656 q 515 567 450 656 q 581 327 581 478 q 513 71 581 164 q 325 -21 445 -21 q 129 96 192 -21 q 66 461 66 213 q 132 899 66 760 q 342 1039 199 1039 q 495 977 436 1039 q 556 812 553 915 l 475 812 q 435 921 471 881 q 343 961 400 961 q 209 858 255 961 q 161 557 163 755 m 334 56 q 450 127 408 56 q 492 329 492 199 q 450 517 492 452 q 329 582 408 582 q 212 522 255 582 q 169 355 169 462 q 211 133 169 210 q 334 56 254 56 "},"n":{"x_min":87,"x_max":527,"ha":612,"o":"m 444 0 l 444 514 q 418 671 444 634 q 328 708 393 708 q 218 667 267 708 q 170 581 170 627 l 170 0 l 87 0 l 87 762 l 161 762 l 161 678 q 245 757 199 732 q 347 782 290 782 q 484 724 441 782 q 527 540 527 667 l 527 0 l 444 0 "},"¤":{"x_min":-26,"x_max":586,"ha":648,"o":"m 497 347 l 586 347 q 512 72 575 166 q 335 -21 448 -21 q 150 82 215 -21 q 75 391 85 185 l -4 391 l 22 451 l 72 451 l 72 487 l 72 527 l 72 583 l -26 583 l 0 643 l 75 643 q 149 951 84 847 q 334 1055 215 1055 q 510 969 445 1055 q 579 735 575 884 l 492 735 q 447 914 488 850 q 335 979 405 979 q 216 892 259 979 q 168 643 174 806 l 426 643 l 401 583 l 165 583 q 164 550 165 572 q 164 517 164 528 q 164 484 164 507 q 165 451 165 462 l 350 451 l 324 391 l 166 391 q 216 141 173 226 q 334 57 259 57 q 448 132 406 57 q 497 347 490 208 "},"∂":{"x_min":92,"x_max":610,"ha":694,"o":"m 509 392 q 520 490 516 439 q 524 599 524 541 q 498 779 524 720 q 419 839 472 839 q 351 789 388 839 q 277 739 314 739 q 245 751 258 739 q 231 783 231 764 q 273 852 231 823 q 373 882 314 882 q 546 782 482 882 q 610 510 610 682 q 520 132 610 283 q 301 -18 431 -18 q 149 53 207 -18 q 92 243 92 124 q 164 444 92 360 q 339 528 237 528 q 446 494 405 528 q 509 392 488 461 m 483 311 q 451 440 483 396 q 358 485 419 485 q 228 400 278 485 q 179 176 179 315 q 211 55 179 97 q 304 13 243 13 q 432 97 381 13 q 483 311 483 182 "},"p":{"x_min":90,"x_max":565,"ha":632,"o":"m 171 377 q 206 124 171 199 q 323 50 242 50 q 440 130 402 50 q 478 382 478 210 q 442 634 478 557 q 326 712 406 712 q 207 635 243 712 q 171 377 171 558 m 90 -264 l 90 762 l 171 762 l 171 681 q 244 756 204 732 q 336 781 284 781 q 510 685 455 781 q 565 381 565 590 q 507 76 565 176 q 331 -24 449 -24 q 238 -1 277 -24 q 171 67 198 21 l 171 -264 l 90 -264 "},"‡":{"x_min":60,"x_max":590,"ha":650,"o":"m 289 -203 l 289 114 l 60 114 l 60 182 l 289 182 l 289 660 l 60 660 l 60 724 l 289 724 l 289 1035 l 361 1035 l 361 724 l 590 724 l 590 660 l 361 660 l 361 182 l 590 182 l 590 114 l 361 114 l 361 -203 l 289 -203 "},"√":{"x_min":36,"x_max":857,"ha":857,"o":"m 857 1102 l 857 1061 l 769 1061 l 365 -28 l 344 -28 l 120 587 l 46 560 l 36 594 l 191 648 l 380 133 l 740 1102 l 857 1102 "},"S":{"x_min":62,"x_max":642,"ha":707,"o":"m 62 295 l 149 295 q 204 121 153 183 q 343 60 255 60 q 498 115 442 60 q 555 268 555 171 q 539 350 555 315 q 487 412 523 384 q 365 473 455 439 q 304 497 325 488 q 133 614 184 547 q 83 787 83 681 q 159 979 83 903 q 355 1055 236 1055 q 547 985 477 1055 q 618 793 618 915 l 618 787 l 535 787 q 484 926 529 877 q 361 975 439 975 q 225 920 279 975 q 172 783 172 866 q 183 713 172 745 q 215 654 194 680 q 376 564 251 612 q 410 551 398 556 q 589 436 536 501 q 642 268 642 371 q 564 55 642 133 q 350 -22 486 -22 q 140 60 215 -22 q 62 295 66 142 "},"/":{"x_min":-43,"x_max":413,"ha":396,"o":"m 23 -129 l -43 -129 l 342 1035 l 413 1035 l 23 -129 "},"y":{"x_min":31,"x_max":523,"ha":549,"o":"m 293 -66 q 218 -223 261 -182 q 96 -265 175 -265 q 75 -263 86 -265 q 43 -258 63 -262 l 43 -186 q 64 -191 54 -190 q 85 -193 74 -193 q 186 -141 149 -193 q 223 -2 223 -89 q 209 77 223 25 q 207 86 208 83 l 31 762 l 113 762 l 271 148 l 439 762 l 523 762 l 293 -66 "},"≈":{"x_min":121,"x_max":1038,"ha":1157,"o":"m 1038 328 q 900 253 966 278 q 775 229 835 229 q 575 276 703 229 q 383 324 446 324 q 267 300 327 324 q 121 215 207 276 l 121 278 q 257 352 192 328 q 383 377 322 377 q 583 330 455 377 q 775 283 712 283 q 891 307 831 283 q 1038 391 951 331 l 1038 328 m 1038 548 q 902 474 966 498 q 775 450 837 450 q 575 497 703 450 q 383 544 446 544 q 267 519 327 544 q 121 435 207 495 l 121 497 q 258 573 192 548 q 383 598 323 598 q 583 550 455 598 q 775 502 712 502 q 889 526 830 502 q 1038 611 949 550 l 1038 548 "},"g":{"x_min":65,"x_max":540,"ha":632,"o":"m 459 379 q 422 636 459 559 q 303 713 386 713 q 187 635 223 713 q 152 381 152 557 q 189 130 152 210 q 306 50 226 50 q 423 125 387 50 q 459 379 459 200 m 459 67 q 391 -1 431 21 q 297 -24 352 -24 q 122 76 180 -24 q 65 381 65 176 q 119 686 65 590 q 293 782 174 782 q 385 757 345 782 q 459 682 425 733 l 459 761 l 540 761 l 540 51 q 484 -194 540 -124 q 292 -264 428 -264 q 150 -214 207 -264 q 88 -86 93 -165 l 169 -86 q 213 -164 177 -137 q 310 -191 248 -191 q 421 -140 383 -191 q 459 7 459 -89 l 459 67 "},"²":{"x_min":47,"x_max":381.71875,"ha":428,"o":"m 47 407 q 55 483 47 449 q 81 547 64 518 q 188 660 106 585 l 193 664 l 196 667 q 322 870 322 781 q 294 953 322 922 q 221 984 267 984 q 138 951 166 984 q 110 851 111 918 l 57 850 l 57 859 q 99 984 57 938 q 214 1031 142 1031 q 334 986 290 1031 q 379 865 379 942 q 373 811 379 836 q 357 764 368 786 q 263 657 336 719 q 243 640 250 646 q 135 532 162 570 q 108 459 108 494 l 381 459 l 381 407 l 47 407 "},"ë":{"x_min":65,"x_max":515,"ha":581,"o":"m 510 245 q 447 47 503 115 q 290 -21 391 -21 q 120 77 175 -21 q 65 379 65 175 q 121 682 65 584 q 296 781 178 781 q 459 697 403 781 q 515 452 515 614 l 515 388 l 152 388 l 152 345 q 186 124 152 197 q 289 52 221 52 q 389 102 353 52 q 429 245 425 152 l 510 245 m 152 457 l 430 457 q 431 473 430 462 q 432 490 432 485 q 396 652 432 595 q 295 710 360 710 q 188 646 225 710 q 152 463 152 583 l 152 457 m 161 875 l 161 978 l 239 978 l 239 875 l 161 875 m 339 875 l 339 978 l 417 978 l 417 875 l 339 875 "},"–":{"x_min":0,"x_max":694,"ha":694,"o":"m 0 353 l 0 407 l 694 407 l 694 353 l 0 353 "},"ƒ":{"x_min":36,"x_max":614,"ha":648,"o":"m 36 -247 l 50 -170 q 77 -176 65 -174 q 100 -179 90 -179 q 171 -136 146 -179 q 216 27 196 -94 l 310 586 l 151 586 l 151 648 l 321 648 l 350 823 q 415 984 368 929 q 538 1040 463 1040 q 573 1035 554 1040 q 614 1023 592 1031 l 603 950 q 573 961 588 957 q 539 965 557 965 q 473 930 496 965 q 435 809 449 895 l 407 648 l 562 648 l 562 586 l 397 586 l 297 -9 q 231 -201 275 -142 q 109 -260 187 -260 q 74 -256 93 -260 q 36 -247 56 -253 "},"J":{"x_min":24,"x_max":444,"ha":543,"o":"m 25 300 l 109 300 l 109 278 q 140 110 109 164 q 239 56 172 56 q 330 102 304 56 q 357 290 357 148 l 357 1035 l 444 1035 l 444 221 q 392 39 444 100 q 237 -21 340 -21 q 78 48 132 -21 q 24 251 24 117 q 24 281 24 270 q 25 300 24 291 "},"Ã":{"x_min":22,"x_max":678,"ha":701,"o":"m 22 0 l 300 1035 l 402 1035 l 678 0 l 590 0 l 503 325 l 191 325 l 102 0 l 22 0 m 206 404 l 485 404 l 346 921 l 206 404 m 517 1270 q 476 1177 504 1207 q 404 1147 449 1147 q 388 1148 396 1147 q 369 1152 379 1149 l 312 1170 q 297 1174 304 1173 q 286 1176 291 1176 q 253 1165 266 1176 q 234 1133 240 1154 l 186 1133 q 225 1223 197 1192 q 295 1254 253 1254 q 313 1252 305 1254 q 329 1248 321 1251 l 380 1231 q 396 1227 388 1228 q 415 1226 405 1226 q 450 1237 436 1226 q 469 1270 464 1248 l 517 1270 "},"©":{"x_min":83,"x_max":1073,"ha":1157,"o":"m 733 622 q 678 708 719 677 q 578 739 638 739 q 445 672 493 739 q 398 487 398 606 q 446 306 398 372 q 578 240 495 240 q 684 275 640 240 q 742 370 729 311 l 811 370 q 737 234 803 287 q 574 182 671 182 q 388 265 457 182 q 319 491 319 349 q 391 713 319 630 q 582 797 464 797 q 733 748 672 797 q 804 622 795 699 l 733 622 m 1024 488 q 990 658 1024 578 q 895 802 957 739 q 749 900 830 867 q 577 934 668 934 q 406 900 487 934 q 264 805 326 867 q 166 657 200 739 q 132 488 132 576 q 165 319 132 400 q 263 174 199 238 q 408 77 327 111 q 577 43 489 43 q 747 77 665 43 q 895 176 830 112 q 991 318 958 238 q 1024 488 1024 397 m 577 984 q 768 946 678 984 q 929 838 859 909 q 1036 678 999 769 q 1073 488 1073 588 q 1036 298 1073 386 q 929 141 1000 210 q 766 31 857 69 q 577 -7 674 -7 q 389 30 479 -7 q 228 140 299 68 q 120 300 157 210 q 83 488 83 389 q 120 677 83 586 q 230 840 158 768 q 387 947 298 910 q 577 984 476 984 "},"˘":{"x_min":184,"x_max":508,"ha":694,"o":"m 184 1019 l 231 1019 q 265 953 237 974 q 346 932 292 932 q 427 952 400 932 q 461 1019 454 973 l 508 1019 q 461 894 500 933 q 346 856 422 856 q 230 895 270 856 q 184 1019 191 934 "},"≥":{"x_min":179,"x_max":978,"ha":1157,"o":"m 978 87 l 978 33 l 179 33 l 179 87 l 978 87 m 978 520 l 978 472 l 179 198 l 179 257 l 886 496 l 179 734 l 179 794 l 978 520 "},"D":{"x_min":97,"x_max":692,"ha":768,"o":"m 187 78 l 307 78 q 536 168 474 78 q 599 516 599 259 q 536 867 599 776 q 307 958 474 958 l 187 958 l 187 78 m 97 0 l 97 1035 l 312 1035 q 606 919 521 1035 q 692 518 692 804 q 606 116 692 232 q 312 0 520 0 l 97 0 "},"ÿ":{"x_min":31,"x_max":523,"ha":549,"o":"m 293 -66 q 218 -223 261 -182 q 96 -265 175 -265 q 75 -263 86 -265 q 43 -258 63 -262 l 43 -186 q 64 -191 54 -190 q 85 -193 74 -193 q 186 -141 149 -193 q 223 -2 223 -89 q 209 77 223 25 q 207 86 208 83 l 31 762 l 113 762 l 271 148 l 439 762 l 523 762 l 293 -66 m 146 875 l 146 978 l 224 978 l 224 875 l 146 875 m 324 875 l 324 978 l 402 978 l 402 875 l 324 875 "},"ł":{"x_min":0,"x_max":319,"ha":318,"o":"m 117 0 l 117 484 l 0 404 l 0 470 l 117 552 l 117 1035 l 202 1035 l 202 598 l 319 680 l 319 612 l 202 530 l 202 0 l 117 0 "},"Ł":{"x_min":0,"x_max":564,"ha":595,"o":"m 97 0 l 97 438 l 0 369 l 0 455 l 97 523 l 97 1035 l 180 1035 l 180 567 l 343 682 l 343 596 l 180 480 l 180 78 l 564 78 l 564 0 l 97 0 "},"$":{"x_min":50,"x_max":597,"ha":648,"o":"m 291 584 l 291 946 q 187 891 225 936 q 149 776 149 845 q 185 661 149 710 q 291 584 222 612 m 291 -94 l 291 2 q 111 91 172 18 q 50 289 50 164 q 50 304 50 293 q 51 321 51 315 l 132 321 q 169 151 132 207 q 291 84 207 94 l 291 493 q 118 613 173 545 q 64 773 64 681 q 124 941 64 876 q 288 1015 185 1007 l 288 1109 l 349 1109 l 349 1018 q 509 943 453 1005 q 565 778 565 881 l 565 760 l 487 760 q 451 887 484 841 q 351 942 417 932 l 351 561 q 543 436 489 500 q 597 276 597 373 q 531 88 597 160 q 351 4 466 16 l 351 -94 l 291 -94 m 349 82 q 468 145 426 96 q 511 270 511 194 q 472 388 511 342 q 349 464 434 433 l 349 82 "},"w":{"x_min":22,"x_max":759,"ha":783,"o":"m 22 762 l 99 762 l 227 155 l 346 762 l 432 762 l 556 155 l 683 762 l 759 762 l 595 0 l 512 0 l 389 595 l 268 0 l 182 0 l 22 762 "},"\\":{"x_min":-43,"x_max":412,"ha":396,"o":"m 346 -129 l -43 1035 l 26 1035 l 412 -129 l 346 -129 "},"∫":{"x_min":31,"x_max":612,"ha":643,"o":"m 272 391 q 330 888 272 729 q 512 1048 389 1048 q 584 1024 556 1048 q 612 963 612 1000 q 593 914 612 932 q 542 897 574 897 q 474 940 490 897 q 451 984 457 984 q 388 876 406 984 q 371 410 371 768 q 313 -93 371 65 q 131 -252 255 -252 q 59 -228 87 -252 q 31 -171 31 -205 q 50 -118 31 -138 q 102 -99 69 -99 q 139 -108 124 -99 q 167 -137 155 -117 q 175 -167 172 -146 q 192 -188 178 -188 q 254 -76 236 -188 q 272 391 272 35 "},"Ì":{"x_min":-2,"x_max":225,"ha":288,"o":"m 100 0 l 100 1035 l 187 1035 l 187 0 l 100 0 m 225 1121 l 166 1121 l -2 1305 l 106 1305 l 225 1121 "},"Ç":{"x_min":77,"x_max":674.78125,"ha":753,"o":"m 674 348 q 588 72 662 165 q 381 -21 514 -21 q 150 109 224 -21 q 77 518 77 240 q 150 925 77 795 q 381 1055 224 1055 q 588 970 512 1055 q 668 735 664 885 l 579 734 q 522 912 573 849 q 381 976 470 976 q 219 864 272 976 q 167 518 167 753 q 219 171 167 282 q 381 60 272 60 q 524 135 471 60 q 587 348 578 210 l 674 348 m 264 -238 q 343 -249 316 -246 q 385 -253 370 -253 q 442 -238 423 -253 q 462 -196 462 -224 q 442 -145 462 -162 q 381 -129 422 -129 q 367 -129 372 -129 q 358 -130 362 -129 l 358 0 l 405 0 l 405 -72 q 510 -102 474 -72 q 547 -191 547 -132 q 506 -283 547 -252 q 387 -315 465 -315 q 336 -310 367 -315 q 264 -298 305 -306 l 264 -238 "},"C":{"x_min":77,"x_max":674.78125,"ha":753,"o":"m 674 348 q 588 72 662 165 q 381 -21 514 -21 q 150 109 224 -21 q 77 518 77 240 q 150 925 77 795 q 381 1055 224 1055 q 588 970 512 1055 q 668 735 664 885 l 579 734 q 522 912 573 849 q 381 976 470 976 q 219 864 272 976 q 167 518 167 753 q 219 171 167 282 q 381 60 272 60 q 524 135 471 60 q 587 348 578 210 l 674 348 "},"!":{"x_min":113,"x_max":205,"ha":318,"o":"m 113 0 l 113 119 l 205 119 l 205 0 l 113 0 m 135 244 l 113 1035 l 205 1035 l 188 244 l 135 244 "},"ç":{"x_min":82,"x_max":533,"ha":589,"o":"m 533 260 q 467 50 524 121 q 312 -21 411 -21 q 140 81 199 -21 q 82 380 82 183 q 141 681 82 580 q 316 782 200 782 q 464 719 409 782 q 525 546 520 656 l 446 546 q 408 664 443 620 q 319 708 374 708 q 207 623 246 708 q 168 380 168 539 q 207 139 168 225 q 316 53 246 53 q 411 107 375 53 q 452 260 446 161 l 533 260 m 195 -238 q 274 -249 247 -246 q 316 -253 301 -253 q 373 -238 354 -253 q 393 -196 393 -224 q 373 -145 393 -162 q 312 -129 353 -129 q 298 -129 303 -129 q 289 -130 293 -129 l 289 0 l 336 0 l 336 -72 q 441 -102 405 -72 q 478 -191 478 -132 q 437 -283 478 -252 q 318 -315 396 -315 q 267 -310 298 -315 q 195 -298 236 -306 l 195 -238 "},"È":{"x_min":97,"x_max":572,"ha":629,"o":"m 97 0 l 97 1035 l 572 1035 l 572 954 l 191 954 l 191 580 l 533 580 l 533 501 l 191 501 l 191 81 l 572 81 l 572 0 l 97 0 m 412 1121 l 353 1121 l 185 1305 l 293 1305 l 412 1121 "},"X":{"x_min":0,"x_max":642,"ha":642,"o":"m 0 0 l 267 533 l 18 1035 l 112 1035 l 322 625 l 539 1035 l 642 1035 l 373 536 l 642 0 l 543 0 l 320 446 l 96 0 l 0 0 "},"ô":{"x_min":65,"x_max":554,"ha":621,"o":"m 152 379 q 191 135 152 217 q 309 53 231 53 q 427 135 387 53 q 468 379 468 218 q 427 623 468 540 q 309 706 387 706 q 191 623 231 706 q 152 379 152 541 m 65 379 q 126 680 65 580 q 309 781 187 781 q 492 680 431 781 q 554 379 554 580 q 493 78 554 178 q 309 -21 432 -21 q 125 78 186 -21 q 65 379 65 178 m 143 846 l 261 1030 l 362 1030 l 481 846 l 422 846 l 311 971 l 201 846 l 143 846 "},"đ":{"x_min":65,"x_max":634,"ha":632,"o":"m 459 382 q 423 637 459 562 q 306 712 387 712 q 189 631 226 712 q 152 379 152 551 q 187 126 152 203 q 303 49 223 49 q 422 125 385 49 q 459 382 459 201 m 540 1035 l 540 919 l 634 919 l 634 862 l 540 862 l 540 0 l 459 0 l 459 79 q 385 3 425 27 q 293 -21 345 -21 q 119 74 174 -21 q 65 379 65 170 q 122 684 65 584 q 297 785 180 785 q 389 762 350 785 q 459 692 429 740 l 459 862 l 302 862 l 302 919 l 459 919 l 459 1035 l 540 1035 "},"}":{"x_min":120,"x_max":574,"ha":694,"o":"m 369 746 l 369 583 q 408 432 369 476 q 543 388 447 388 q 558 389 548 388 q 574 390 567 390 l 574 330 q 558 330 567 330 q 543 331 548 331 q 408 287 447 331 q 369 137 369 244 l 369 -25 q 322 -229 369 -178 q 149 -280 276 -280 l 120 -280 l 120 -220 l 146 -220 q 268 -185 237 -220 q 300 -42 300 -151 l 300 121 q 329 288 300 239 q 432 360 358 338 q 329 431 358 381 q 300 598 300 480 l 300 762 q 268 907 300 872 q 145 942 236 942 l 120 942 l 120 1002 l 149 1002 q 322 951 276 1002 q 369 746 369 900 "},"â":{"x_min":32,"x_max":519,"ha":550,"o":"m 519 -2 q 487 -7 500 -6 q 462 -9 474 -9 q 411 6 431 -9 q 379 56 390 23 q 304 -2 346 17 q 211 -22 262 -22 q 79 33 126 -22 q 32 189 32 89 q 74 330 32 277 q 221 424 116 383 q 280 445 242 432 q 380 536 380 479 l 380 600 q 354 689 380 661 q 268 717 327 717 q 171 681 204 717 q 137 574 139 645 l 58 574 l 58 590 q 115 729 58 677 q 270 781 173 781 q 367 766 328 781 q 430 722 406 752 q 453 674 446 702 q 461 595 461 647 l 461 555 l 461 142 q 471 71 461 84 q 510 57 481 57 l 519 57 l 519 -2 m 378 408 q 159 298 201 340 q 117 189 117 256 q 146 88 117 125 q 228 51 176 51 q 341 106 305 51 q 378 282 378 162 l 378 408 m 107 846 l 225 1030 l 326 1030 l 445 846 l 386 846 l 275 971 l 165 846 l 107 846 "},"ø":{"x_min":16.921875,"x_max":603.828125,"ha":621,"o":"m 188 143 q 236 75 205 98 q 308 52 266 52 q 427 134 387 52 q 468 379 468 217 q 463 467 468 425 q 450 547 459 508 l 188 143 m 166 220 l 427 620 q 382 686 413 662 q 309 710 351 710 q 192 624 232 710 q 152 373 152 538 q 155 294 152 333 q 166 220 158 256 m 104 122 q 74 246 84 182 q 65 379 65 310 q 124 680 65 580 q 304 781 184 781 q 405 761 361 781 q 482 702 450 742 l 553 814 l 603 782 l 512 642 q 544 513 534 580 q 555 375 555 447 q 493 77 555 176 q 309 -22 432 -22 q 203 -1 246 -22 q 134 62 160 19 l 66 -42 l 16 -12 l 104 122 "},"Ä":{"x_min":22,"x_max":678,"ha":701,"o":"m 22 0 l 300 1035 l 402 1035 l 678 0 l 590 0 l 503 325 l 191 325 l 102 0 l 22 0 m 206 404 l 485 404 l 346 921 l 206 404 m 222 1150 l 222 1253 l 300 1253 l 300 1150 l 222 1150 m 400 1150 l 400 1253 l 478 1253 l 478 1150 l 400 1150 "},"‰":{"x_min":68,"x_max":1294,"ha":1362,"o":"m 1112 440 q 1034 392 1060 440 q 1008 250 1008 345 q 1033 107 1008 154 q 1112 61 1059 61 q 1192 108 1165 61 q 1219 250 1219 155 q 1192 392 1219 345 q 1112 440 1165 440 m 1113 501 q 1246 434 1198 501 q 1294 250 1294 368 q 1246 65 1294 130 q 1113 0 1199 0 q 980 65 1027 0 q 933 250 933 130 q 980 435 933 369 q 1113 501 1027 501 m 680 440 q 601 392 627 440 q 575 250 575 345 q 600 107 575 154 q 680 61 626 61 q 759 108 732 61 q 786 250 786 155 q 759 392 786 345 q 680 440 732 440 m 680 501 q 813 434 765 501 q 861 250 861 368 q 813 65 861 130 q 680 0 766 0 q 547 65 594 0 q 500 250 500 130 q 547 435 500 369 q 680 501 594 501 m 249 974 q 169 926 196 974 q 143 784 143 878 q 169 641 143 688 q 249 595 196 595 q 328 641 302 595 q 354 784 354 688 q 328 927 354 880 q 249 974 302 974 m 68 784 q 115 969 68 903 q 248 1035 163 1035 q 381 969 334 1035 q 429 784 429 903 q 381 599 429 665 q 248 534 334 534 q 115 600 163 534 q 68 784 68 666 m 221 -19 l 644 1055 l 707 1055 l 286 -19 l 221 -19 "},"N":{"x_min":97,"x_max":672,"ha":770,"o":"m 97 0 l 97 1035 l 195 1035 l 590 132 l 590 1035 l 672 1035 l 672 0 l 571 0 l 179 885 l 179 0 l 97 0 "},"—":{"x_min":0,"x_max":1389,"ha":1389,"o":"m 1389 407 l 1389 353 l 0 353 l 0 407 l 1389 407 "},"2":{"x_min":72,"x_max":578.71875,"ha":648,"o":"m 72 0 q 85 128 72 70 q 125 233 99 185 q 277 411 158 293 l 293 428 l 302 436 q 490 771 490 623 q 448 909 490 858 q 335 961 406 961 q 210 905 252 961 q 166 738 168 849 l 87 737 l 87 752 q 151 962 87 885 q 327 1039 215 1039 q 509 965 442 1039 q 576 763 576 891 q 567 674 576 716 q 544 596 559 631 q 398 414 510 518 q 371 388 380 397 q 205 206 245 268 q 165 85 165 144 l 578 85 l 578 0 l 72 0 "},"ü":{"x_min":85,"x_max":525,"ha":612,"o":"m 168 762 l 168 247 q 193 90 168 126 q 283 54 218 54 q 393 94 344 54 q 442 180 442 134 l 442 762 l 525 762 l 525 0 l 450 0 l 450 83 q 366 5 412 30 q 264 -20 321 -20 q 127 36 170 -20 q 85 220 85 93 l 85 762 l 168 762 m 178 875 l 178 978 l 256 978 l 256 875 l 178 875 m 356 875 l 356 978 l 434 978 l 434 875 l 356 875 "},"":{"x_min":34,"x_max":526,"ha":631,"o":"m 113 0 l 113 694 l 34 694 l 34 762 l 113 762 l 113 863 q 144 999 113 959 q 251 1039 176 1039 q 288 1037 263 1039 q 296 1036 293 1036 l 296 967 q 285 967 291 967 q 268 968 279 968 q 212 946 227 968 q 198 846 198 925 l 198 762 l 296 762 l 296 694 l 198 694 l 198 0 l 113 0 m 443 0 l 443 1035 l 526 1035 l 526 0 l 443 0 "},"Ó":{"x_min":77,"x_max":688,"ha":764,"o":"m 166 518 q 218 172 166 284 q 382 60 271 60 q 545 171 492 60 q 598 518 598 282 q 545 864 598 753 q 382 976 492 976 q 218 863 271 976 q 166 518 166 751 m 77 518 q 150 925 77 795 q 382 1055 224 1055 q 614 925 540 1055 q 688 518 688 796 q 613 109 688 240 q 382 -21 539 -21 q 151 109 225 -21 q 77 518 77 240 m 308 1121 l 426 1305 l 536 1305 l 368 1121 l 308 1121 "},"˜":{"x_min":182,"x_max":513,"ha":694,"o":"m 513 995 q 472 902 500 932 q 400 872 445 872 q 384 873 392 872 q 365 877 375 874 l 308 895 q 293 899 300 898 q 282 901 287 901 q 249 890 262 901 q 230 858 236 879 l 182 858 q 221 948 193 917 q 291 979 249 979 q 309 977 301 979 q 325 973 317 976 l 376 956 q 392 952 384 953 q 411 951 401 951 q 446 962 432 951 q 465 995 460 973 l 513 995 "},"ˇ":{"x_min":179,"x_max":517,"ha":694,"o":"m 179 1030 l 237 1030 l 347 904 l 458 1030 l 517 1030 l 398 846 l 297 846 l 179 1030 "},"Ÿ":{"x_min":1,"x_max":637,"ha":637,"o":"m 273 0 l 273 441 l 1 1035 l 92 1035 l 314 547 l 540 1035 l 637 1035 l 359 441 l 359 0 l 273 0 m 190 1150 l 190 1253 l 268 1253 l 268 1150 l 190 1150 m 368 1150 l 368 1253 l 446 1253 l 446 1150 l 368 1150 "},"€":{"x_min":-26,"x_max":586,"ha":648,"o":"m 497 347 l 586 347 q 512 72 575 166 q 335 -21 448 -21 q 150 82 215 -21 q 75 391 85 185 l -4 391 l 22 451 l 72 451 l 72 487 l 72 527 l 72 583 l -26 583 l 0 643 l 75 643 q 149 951 84 847 q 334 1055 215 1055 q 510 969 445 1055 q 579 735 575 884 l 492 735 q 447 914 488 850 q 335 979 405 979 q 216 892 259 979 q 168 643 174 806 l 426 643 l 401 583 l 165 583 q 164 550 165 572 q 164 517 164 528 q 164 484 164 507 q 165 451 165 462 l 350 451 l 324 391 l 166 391 q 216 141 173 226 q 334 57 259 57 q 448 132 406 57 q 497 347 490 208 "},"ß":{"x_min":102,"x_max":558,"ha":624,"o":"m 102 0 l 102 763 q 106 872 102 839 q 120 927 110 906 q 196 1006 143 977 q 315 1035 248 1035 q 469 973 416 1035 q 523 796 523 911 q 500 668 523 717 q 430 586 478 618 q 527 486 497 555 q 558 293 558 417 q 514 57 558 134 q 383 -20 471 -20 q 339 -12 362 -20 q 285 9 315 -5 l 285 86 q 329 61 308 69 q 369 53 350 53 q 447 109 422 53 q 473 283 473 165 q 433 495 473 434 q 299 556 394 556 l 297 556 l 297 614 l 304 614 q 410 657 376 614 q 445 790 445 700 q 410 928 445 883 q 307 974 376 974 q 213 936 241 974 q 185 809 185 899 l 185 0 l 102 0 "},"s":{"x_min":53,"x_max":494,"ha":547,"o":"m 53 207 l 131 207 q 166 91 131 131 q 270 51 202 51 q 373 88 335 51 q 411 191 411 126 q 242 375 411 288 q 216 388 225 384 q 97 479 126 436 q 69 597 69 522 q 120 731 69 680 q 256 782 172 782 q 412 729 359 782 q 469 571 464 676 l 393 571 q 352 678 383 643 q 266 713 321 713 q 178 682 210 713 q 146 599 146 651 q 330 415 146 510 q 363 398 352 404 q 460 313 426 366 q 494 192 494 259 q 433 36 494 95 q 271 -22 372 -22 q 109 35 166 -22 q 53 200 53 93 l 53 207 "},"?":{"x_min":29,"x_max":502,"ha":550,"o":"m 196 0 l 196 125 l 290 125 l 290 0 l 196 0 m 208 252 q 207 267 207 259 q 206 290 206 275 q 225 419 206 362 q 285 534 243 476 q 317 575 296 548 q 413 800 413 697 q 375 932 413 886 q 265 978 337 978 q 151 925 190 978 q 112 772 112 873 l 112 762 l 29 762 l 29 784 q 92 983 29 911 q 266 1055 155 1055 q 438 988 374 1055 q 502 809 502 922 q 496 742 502 775 q 478 677 490 709 q 376 520 459 627 q 336 466 349 485 q 293 375 307 428 q 279 252 279 321 l 208 252 "},"c":{"x_min":82,"x_max":533,"ha":589,"o":"m 533 260 q 467 50 524 121 q 312 -21 411 -21 q 140 81 199 -21 q 82 380 82 183 q 141 681 82 580 q 316 782 200 782 q 464 719 409 782 q 525 546 520 656 l 446 546 q 408 664 443 620 q 319 708 374 708 q 207 623 246 708 q 168 380 168 539 q 207 139 168 225 q 316 53 246 53 q 411 107 375 53 q 452 260 446 161 l 533 260 "},"¶":{"x_min":61,"x_max":631,"ha":694,"o":"m 631 960 l 544 960 l 544 0 l 497 0 l 497 960 l 367 960 l 367 0 l 320 0 l 320 530 q 131 599 201 535 q 61 766 61 663 q 134 937 61 872 q 329 1003 208 1003 l 631 1003 l 631 960 "},"•":{"x_min":208,"x_max":609,"ha":819,"o":"m 208 516 q 266 657 208 599 q 409 716 325 716 q 550 657 491 716 q 609 516 609 598 q 549 374 609 433 q 407 315 490 315 q 266 373 324 315 q 208 516 208 432 "},"(":{"x_min":110,"x_max":372,"ha":425,"o":"m 372 -264 l 309 -264 q 160 56 210 -106 q 110 385 110 220 q 160 714 110 551 q 309 1035 210 876 l 372 1035 q 240 712 284 874 q 197 385 197 550 q 240 58 197 221 q 372 -264 284 -103 "},"◊":{"x_min":4,"x_max":682,"ha":686,"o":"m 343 955 l 81 401 l 343 -158 l 604 401 l 343 955 m 343 1121 l 682 401 l 343 -324 l 4 401 l 343 1121 "},"­":{"x_min":68,"x_max":438,"ha":482,"o":"m 68 343 l 68 416 l 438 416 l 438 343 l 68 343 "},":":{"x_min":117,"x_max":209,"ha":325,"o":"m 117 602 l 117 717 l 209 717 l 209 602 l 117 602 m 117 0 l 117 115 l 209 115 l 209 0 l 117 0 "},"Û":{"x_min":97,"x_max":663,"ha":760,"o":"m 663 1035 l 663 273 q 590 54 663 130 q 380 -21 518 -21 q 169 54 241 -21 q 97 273 97 129 l 97 1035 l 183 1035 l 183 337 q 189 210 183 246 q 210 148 195 174 q 280 81 236 104 q 380 58 324 58 q 480 81 436 58 q 550 148 525 105 q 570 203 564 172 q 577 290 577 233 l 577 337 l 577 1035 l 663 1035 m 212 1121 l 330 1305 l 431 1305 l 550 1121 l 491 1121 l 380 1246 l 270 1121 l 212 1121 "},"V":{"x_min":8,"x_max":660,"ha":668,"o":"m 280 0 l 8 1035 l 96 1035 l 331 126 l 575 1035 l 660 1035 l 379 0 l 280 0 "}," ":{"x_min":0,"x_max":0,"ha":648},"@":{"x_min":82,"x_max":1307,"ha":1389,"o":"m 884 560 l 925 647 l 979 647 l 886 272 q 876 228 879 247 q 872 198 872 209 q 893 152 872 168 q 951 136 913 136 q 1019 149 984 136 q 1089 187 1055 162 q 1199 328 1158 238 q 1241 519 1241 418 q 1105 818 1241 705 q 749 931 970 931 q 538 898 635 931 q 363 800 441 865 q 205 599 258 714 q 153 345 153 484 q 303 -8 153 123 q 704 -141 453 -141 q 924 -106 813 -141 q 1126 -9 1034 -72 l 1146 -40 q 937 -152 1047 -115 q 706 -190 827 -190 q 474 -158 580 -190 q 286 -64 368 -126 q 132 116 183 13 q 82 353 82 220 q 116 561 82 463 q 216 741 150 660 q 450 921 313 860 q 755 983 587 983 q 962 953 864 983 q 1130 868 1060 923 q 1262 715 1217 802 q 1307 526 1307 628 q 1264 317 1307 412 q 1141 160 1221 223 q 1042 104 1096 123 q 934 85 989 85 q 837 109 870 85 q 804 183 804 134 q 806 206 804 191 q 807 209 807 208 q 722 117 774 150 q 609 85 670 85 q 451 141 505 85 q 397 306 397 197 q 488 568 397 461 q 710 676 579 676 q 818 646 774 676 q 884 560 862 617 m 827 315 l 869 488 q 814 590 854 555 q 711 626 774 626 q 538 532 608 626 q 468 301 468 438 q 507 179 468 223 q 615 135 546 135 q 748 184 690 135 q 827 315 805 233 "},"¾":{"x_min":45,"x_max":1012,"ha":1048,"o":"m 898 0 l 898 149 l 676 149 l 676 191 l 898 571 l 954 571 l 954 191 l 1012 191 l 1012 149 l 954 149 l 954 0 l 898 0 m 731 191 l 898 191 l 903 495 l 731 191 m 245 -21 l 176 -21 l 802 1039 l 870 1039 l 245 -21 m 45 600 l 96 600 q 126 512 98 543 q 201 481 154 481 q 281 514 251 481 q 311 604 311 547 q 277 696 311 666 q 173 726 244 726 q 156 725 162 726 q 146 725 150 725 l 146 768 l 150 768 q 260 797 225 768 q 296 888 296 826 q 271 960 296 934 q 202 987 246 987 q 135 958 159 987 q 112 878 112 929 l 112 877 l 59 877 q 98 988 61 948 q 201 1029 135 1029 q 308 990 268 1029 q 348 888 348 952 q 326 804 348 839 q 261 752 304 770 q 342 699 316 736 q 368 605 368 663 q 322 481 368 526 q 200 436 277 436 q 86 479 127 436 q 45 600 45 523 "},"i":{"x_min":108,"x_max":200,"ha":307,"o":"m 111 0 l 111 762 l 196 762 l 196 0 l 111 0 m 108 902 l 108 1034 l 200 1034 l 200 902 l 108 902 "},"≤":{"x_min":179,"x_max":978,"ha":1157,"o":"m 978 87 l 978 33 l 179 33 l 179 87 l 978 87 m 978 734 l 270 496 l 978 257 l 978 198 l 179 472 l 179 520 l 978 794 l 978 734 "},"m":{"x_min":87,"x_max":884,"ha":968,"o":"m 87 0 l 87 762 l 161 762 l 161 679 q 246 756 199 731 q 350 782 293 782 q 452 753 409 782 q 514 673 495 725 q 600 755 552 728 q 707 782 648 782 q 841 724 799 782 q 884 540 884 666 l 884 0 l 803 0 l 803 514 q 776 671 803 636 q 685 707 750 707 q 576 667 626 707 q 527 587 527 628 l 527 0 l 446 0 l 446 514 q 420 672 446 637 q 328 707 394 707 q 219 667 268 707 q 170 583 170 627 l 170 0 l 87 0 "},"ž":{"x_min":32,"x_max":440,"ha":472,"o":"m 32 0 l 32 72 l 351 691 l 50 691 l 50 762 l 440 762 l 440 682 l 120 72 l 440 72 l 440 0 l 32 0 m 68 1030 l 126 1030 l 236 904 l 347 1030 l 406 1030 l 287 846 l 186 846 l 68 1030 "},"á":{"x_min":32,"x_max":519,"ha":550,"o":"m 519 -2 q 487 -7 500 -6 q 462 -9 474 -9 q 411 6 431 -9 q 379 56 390 23 q 304 -2 346 17 q 211 -22 262 -22 q 79 33 126 -22 q 32 189 32 89 q 74 330 32 277 q 221 424 116 383 q 280 445 242 432 q 380 536 380 479 l 380 600 q 354 689 380 661 q 268 717 327 717 q 171 681 204 717 q 137 574 139 645 l 58 574 l 58 590 q 115 729 58 677 q 270 781 173 781 q 367 766 328 781 q 430 722 406 752 q 453 674 446 702 q 461 595 461 647 l 461 555 l 461 142 q 471 71 461 84 q 510 57 481 57 l 519 57 l 519 -2 m 378 408 q 159 298 201 340 q 117 189 117 256 q 146 88 117 125 q 228 51 176 51 q 341 106 305 51 q 378 282 378 162 l 378 408 m 201 846 l 319 1030 l 429 1030 l 261 846 l 201 846 "},"×":{"x_min":210,"x_max":949,"ha":1157,"o":"m 579 453 l 909 784 l 949 745 l 618 414 l 949 83 l 909 45 l 579 375 l 249 45 l 210 83 l 540 414 l 210 745 l 249 784 l 579 453 "},"İ":{"x_min":90,"x_max":199,"ha":288,"o":"m 100 0 l 100 1035 l 187 1035 l 187 0 l 100 0 m 90 1143 l 90 1262 l 199 1262 l 199 1143 l 90 1143 "},"K":{"x_min":97,"x_max":682,"ha":682,"o":"m 97 0 l 97 1035 l 183 1035 l 183 503 l 570 1035 l 669 1035 l 360 613 l 682 0 l 589 0 l 307 541 l 183 373 l 183 0 l 97 0 "},"7":{"x_min":77,"x_max":573,"ha":648,"o":"m 167 0 q 263 498 182 262 q 488 936 344 735 l 77 936 l 77 1019 l 573 1019 l 573 929 q 353 505 433 741 q 256 0 273 270 l 167 0 "},"¨":{"x_min":218,"x_max":474,"ha":694,"o":"m 218 875 l 218 978 l 296 978 l 296 875 l 218 875 m 396 875 l 396 978 l 474 978 l 474 875 l 396 875 "},"Y":{"x_min":1,"x_max":637,"ha":637,"o":"m 273 0 l 273 441 l 1 1035 l 92 1035 l 314 547 l 540 1035 l 637 1035 l 359 441 l 359 0 l 273 0 "},"E":{"x_min":97,"x_max":572,"ha":629,"o":"m 97 0 l 97 1035 l 572 1035 l 572 954 l 191 954 l 191 580 l 533 580 l 533 501 l 191 501 l 191 81 l 572 81 l 572 0 l 97 0 "},"Ô":{"x_min":77,"x_max":688,"ha":764,"o":"m 166 518 q 218 172 166 284 q 382 60 271 60 q 545 171 492 60 q 598 518 598 282 q 545 864 598 753 q 382 976 492 976 q 218 863 271 976 q 166 518 166 751 m 77 518 q 150 925 77 795 q 382 1055 224 1055 q 614 925 540 1055 q 688 518 688 796 q 613 109 688 240 q 382 -21 539 -21 q 151 109 225 -21 q 77 518 77 240 m 214 1121 l 332 1305 l 433 1305 l 552 1121 l 493 1121 l 382 1246 l 272 1121 l 214 1121 "},"Ï":{"x_min":15,"x_max":271,"ha":288,"o":"m 100 0 l 100 1035 l 187 1035 l 187 0 l 100 0 m 15 1150 l 15 1253 l 93 1253 l 93 1150 l 15 1150 m 193 1150 l 193 1253 l 271 1253 l 271 1150 l 193 1150 "},"‹":{"x_min":79,"x_max":282,"ha":359,"o":"m 79 425 l 282 577 l 282 494 l 130 380 l 282 268 l 282 186 l 79 336 l 79 425 "},"±":{"x_min":172,"x_max":984,"ha":1157,"o":"m 984 96 l 984 40 l 172 40 l 172 96 l 984 96 m 605 787 l 605 547 l 984 547 l 984 493 l 605 493 l 605 254 l 551 254 l 551 493 l 172 493 l 172 547 l 551 547 l 551 787 l 605 787 "},"ì":{"x_min":8,"x_max":235,"ha":307,"o":"m 111 0 l 111 762 l 196 762 l 196 0 l 111 0 m 235 846 l 176 846 l 8 1030 l 116 1030 l 235 846 "},"|":{"x_min":317,"x_max":378,"ha":694,"o":"m 378 1061 l 378 -328 l 317 -328 l 317 1061 l 378 1061 "},"§":{"x_min":46,"x_max":603,"ha":650,"o":"m 418 178 q 504 268 479 229 q 530 351 530 308 q 264 629 530 443 l 230 654 q 144 564 169 603 q 119 481 119 524 q 384 203 119 389 l 418 178 m 95 18 l 165 18 l 165 13 q 204 -113 165 -67 q 313 -160 243 -160 q 421 -121 381 -160 q 462 -19 462 -83 q 296 178 462 65 q 237 220 258 205 q 87 356 128 298 q 46 481 46 414 q 79 587 46 537 q 189 690 113 636 q 132 765 151 724 q 114 852 114 806 q 174 999 114 942 q 328 1057 234 1057 q 486 997 426 1057 q 546 838 546 937 q 545 827 546 835 q 544 815 544 819 l 473 815 l 473 819 q 434 946 473 899 q 328 993 395 993 q 225 954 264 993 q 187 852 187 916 q 352 653 187 767 q 411 612 391 627 q 561 477 520 534 q 603 351 603 419 q 569 245 603 294 q 460 142 535 195 q 515 68 497 109 q 534 -19 534 27 q 474 -167 534 -110 q 316 -224 414 -224 q 153 -165 213 -224 q 94 -4 94 -106 q 94 6 94 -1 q 95 18 95 13 "},"q":{"x_min":65,"x_max":540,"ha":632,"o":"m 459 377 q 422 635 459 558 q 303 712 386 712 q 187 634 223 712 q 152 382 152 557 q 189 130 152 210 q 306 50 226 50 q 423 124 387 50 q 459 377 459 199 m 459 67 q 391 -1 431 21 q 297 -24 352 -24 q 122 76 180 -24 q 65 381 65 176 q 119 685 65 590 q 293 781 174 781 q 385 756 346 781 q 459 681 425 732 l 459 760 l 540 760 l 540 -264 l 459 -264 l 459 67 "},"b":{"x_min":90,"x_max":565,"ha":632,"o":"m 90 0 l 90 1035 l 171 1035 l 171 692 q 238 762 198 739 q 331 785 278 785 q 507 684 449 785 q 565 379 565 584 q 509 74 565 170 q 336 -21 454 -21 q 244 3 284 -21 q 171 79 204 27 l 171 0 l 90 0 m 171 382 q 207 125 171 201 q 326 49 243 49 q 442 126 406 49 q 478 379 478 203 q 440 631 478 551 q 323 712 402 712 q 206 636 242 712 q 171 382 171 561 "},"®":{"x_min":83,"x_max":1073,"ha":1157,"o":"m 577 730 l 463 730 l 463 518 l 577 518 q 712 542 675 518 q 750 627 750 566 q 708 705 750 680 q 577 730 666 730 m 592 783 q 771 744 714 783 q 829 625 829 706 q 791 524 829 564 q 691 475 753 483 l 820 209 l 731 209 l 607 465 l 463 465 l 463 209 l 385 209 l 385 783 l 592 783 m 1024 488 q 990 658 1024 578 q 895 802 957 739 q 749 900 830 867 q 577 934 668 934 q 406 900 487 934 q 264 805 326 867 q 166 657 200 739 q 132 488 132 576 q 165 319 132 400 q 263 174 199 238 q 408 77 327 111 q 577 43 489 43 q 747 77 665 43 q 895 176 830 112 q 991 318 958 238 q 1024 488 1024 397 m 577 984 q 768 946 678 984 q 929 838 859 909 q 1036 678 999 769 q 1073 488 1073 588 q 1036 298 1073 386 q 929 141 1000 210 q 766 31 857 69 q 577 -7 674 -7 q 389 30 479 -7 q 228 140 299 68 q 120 300 157 210 q 83 488 83 389 q 120 677 83 586 q 230 840 158 768 q 387 947 298 910 q 577 984 476 984 "},"L":{"x_min":97,"x_max":564,"ha":595,"o":"m 97 0 l 97 1035 l 180 1035 l 180 78 l 564 78 l 564 0 l 97 0 "}," ":{"x_min":0,"x_max":0,"ha":325},"∑":{"x_min":7,"x_max":850,"ha":875,"o":"m 30 999 l 850 999 l 850 916 l 146 916 l 635 382 l 119 -184 l 850 -184 l 850 -266 l 7 -266 l 7 -179 l 517 382 l 30 916 l 30 999 "},"À":{"x_min":22,"x_max":678,"ha":701,"o":"m 22 0 l 300 1035 l 402 1035 l 678 0 l 590 0 l 503 325 l 191 325 l 102 0 l 22 0 m 206 404 l 485 404 l 346 921 l 206 404 m 432 1121 l 373 1121 l 205 1305 l 313 1305 l 432 1121 "},"+":{"x_min":172,"x_max":984,"ha":1157,"o":"m 605 829 l 605 442 l 984 442 l 984 386 l 605 386 l 605 0 l 551 0 l 551 386 l 172 386 l 172 442 l 551 442 l 551 829 l 605 829 "},"½":{"x_min":60,"x_max":1004.359375,"ha":1050,"o":"m 685 0 q 694 73 685 41 q 719 130 702 104 q 819 233 740 165 l 824 238 l 831 244 q 949 431 949 349 q 922 509 949 480 q 851 539 896 539 q 773 507 799 539 q 745 412 747 476 l 695 412 l 695 422 q 735 538 695 495 q 845 582 776 582 q 960 540 918 582 q 1003 427 1003 499 q 997 376 1003 400 q 982 333 992 352 q 889 230 961 289 q 874 217 878 222 q 768 114 793 149 q 743 47 743 79 l 1004 47 l 1004 0 l 685 0 m 245 -21 l 176 -21 l 802 1039 l 870 1039 l 245 -21 m 196 447 l 196 882 q 142 877 166 879 q 94 876 117 876 q 73 876 80 876 q 60 878 66 876 l 60 907 q 167 934 134 909 q 208 1018 201 959 l 250 1018 l 250 447 l 196 447 "},"Ë":{"x_min":97,"x_max":572,"ha":629,"o":"m 97 0 l 97 1035 l 572 1035 l 572 954 l 191 954 l 191 580 l 533 580 l 533 501 l 191 501 l 191 81 l 572 81 l 572 0 l 97 0 m 202 1150 l 202 1253 l 280 1253 l 280 1150 l 202 1150 m 380 1150 l 380 1253 l 458 1253 l 458 1150 l 380 1150 "},"'":{"x_min":68,"x_max":126,"ha":193,"o":"m 126 973 l 126 598 l 68 598 l 68 973 l 126 973 "},"Š":{"x_min":62,"x_max":642,"ha":707,"o":"m 62 295 l 149 295 q 204 121 153 183 q 343 60 255 60 q 498 115 442 60 q 555 268 555 171 q 539 350 555 315 q 487 412 523 384 q 365 473 455 439 q 304 497 325 488 q 133 614 184 547 q 83 787 83 681 q 159 979 83 903 q 355 1055 236 1055 q 547 985 477 1055 q 618 793 618 915 l 618 787 l 535 787 q 484 926 529 877 q 361 975 439 975 q 225 920 279 975 q 172 783 172 866 q 183 713 172 745 q 215 654 194 680 q 376 564 251 612 q 410 551 398 556 q 589 436 536 501 q 642 268 642 371 q 564 55 642 133 q 350 -22 486 -22 q 140 60 215 -22 q 62 295 66 142 m 186 1305 l 244 1305 l 354 1179 l 465 1305 l 524 1305 l 405 1121 l 304 1121 l 186 1305 "},"˛":{"x_min":210,"x_max":405,"ha":694,"o":"m 386 0 q 315 -80 338 -43 q 293 -151 293 -117 q 308 -194 293 -181 q 359 -207 323 -207 l 405 -207 l 405 -294 l 359 -294 q 246 -266 283 -294 q 210 -182 210 -239 q 237 -98 210 -138 q 338 0 265 -57 l 386 0 "},"ð":{"x_min":65,"x_max":530,"ha":599,"o":"m 152 1022 q 231 979 191 1003 q 313 923 271 954 l 473 1016 l 502 966 l 360 881 q 488 665 447 793 q 530 359 530 537 q 472 72 530 167 q 298 -22 415 -22 q 122 72 180 -22 q 65 359 65 167 q 124 646 65 549 q 298 743 183 743 q 346 736 323 743 q 392 716 368 730 q 355 780 377 749 q 299 845 332 811 l 144 752 l 112 802 l 252 887 q 195 925 226 907 q 125 962 164 943 l 152 1022 m 147 359 q 185 128 147 207 q 298 49 224 49 q 410 127 372 49 q 449 359 449 205 q 410 591 449 512 q 298 670 372 670 q 186 590 225 670 q 147 359 147 510 "},"ş":{"x_min":53,"x_max":494,"ha":547,"o":"m 53 207 l 131 207 q 166 91 131 131 q 270 51 202 51 q 373 88 335 51 q 411 191 411 126 q 242 375 411 288 q 216 388 225 384 q 97 479 126 436 q 69 597 69 522 q 120 731 69 680 q 256 782 172 782 q 412 729 359 782 q 469 571 464 676 l 393 571 q 352 678 383 643 q 266 713 321 713 q 178 682 210 713 q 146 599 146 651 q 330 415 146 510 q 363 398 352 404 q 460 313 426 366 q 494 192 494 259 q 433 36 494 95 q 271 -22 372 -22 q 109 35 166 -22 q 53 200 53 93 l 53 207 m 154 -238 q 233 -249 206 -246 q 275 -253 260 -253 q 332 -238 313 -253 q 352 -196 352 -224 q 332 -145 352 -162 q 271 -129 312 -129 q 257 -129 262 -129 q 248 -130 252 -129 l 248 0 l 295 0 l 295 -72 q 400 -102 364 -72 q 437 -191 437 -132 q 396 -283 437 -252 q 277 -315 355 -315 q 226 -310 257 -315 q 154 -298 195 -306 l 154 -238 "},"ı":{"x_min":111,"x_max":196,"ha":307,"o":"m 111 0 l 111 762 l 196 762 l 196 0 l 111 0 "},"Ć":{"x_min":77,"x_max":674.78125,"ha":753,"o":"m 674 348 q 588 72 662 165 q 381 -21 514 -21 q 150 109 224 -21 q 77 518 77 240 q 150 925 77 795 q 381 1055 224 1055 q 588 970 512 1055 q 668 735 664 885 l 579 734 q 522 912 573 849 q 381 976 470 976 q 219 864 272 976 q 167 518 167 753 q 219 171 167 282 q 381 60 272 60 q 524 135 471 60 q 587 348 578 210 l 674 348 m 305 1121 l 423 1305 l 533 1305 l 365 1121 l 305 1121 "},"ä":{"x_min":32,"x_max":519,"ha":550,"o":"m 519 -2 q 487 -7 500 -6 q 462 -9 474 -9 q 411 6 431 -9 q 379 56 390 23 q 304 -2 346 17 q 211 -22 262 -22 q 79 33 126 -22 q 32 189 32 89 q 74 330 32 277 q 221 424 116 383 q 280 445 242 432 q 380 536 380 479 l 380 600 q 354 689 380 661 q 268 717 327 717 q 171 681 204 717 q 137 574 139 645 l 58 574 l 58 590 q 115 729 58 677 q 270 781 173 781 q 367 766 328 781 q 430 722 406 752 q 453 674 446 702 q 461 595 461 647 l 461 555 l 461 142 q 471 71 461 84 q 510 57 481 57 l 519 57 l 519 -2 m 378 408 q 159 298 201 340 q 117 189 117 256 q 146 88 117 125 q 228 51 176 51 q 341 106 305 51 q 378 282 378 162 l 378 408 m 146 875 l 146 978 l 224 978 l 224 875 l 146 875 m 324 875 l 324 978 l 402 978 l 402 875 l 324 875 "},"¹":{"x_min":62,"x_max":262,"ha":428,"o":"m 205 407 l 205 875 q 152 869 178 871 q 99 867 126 867 q 77 867 85 867 q 62 869 69 867 l 62 900 q 174 929 139 902 q 217 1018 210 956 l 262 1018 l 262 407 l 205 407 "},"£":{"x_min":41.40625,"x_max":606.8125,"ha":648,"o":"m 50 36 q 169 177 128 103 q 211 328 211 252 q 203 397 211 361 q 182 473 196 433 l 41 473 l 41 529 l 161 529 q 110 676 127 611 q 93 788 93 740 q 161 970 93 900 q 337 1040 229 1040 q 511 965 444 1040 q 579 773 579 891 q 578 751 579 759 q 577 738 578 744 l 504 737 l 504 747 q 460 909 504 853 q 336 966 417 966 q 221 918 265 966 q 178 791 178 870 q 197 676 178 741 q 256 529 217 610 l 463 529 l 463 473 l 271 473 q 285 402 281 432 q 290 348 290 372 q 265 218 290 280 q 192 94 241 156 q 222 98 207 97 q 254 100 237 100 q 377 81 306 100 q 470 63 448 63 q 518 72 492 63 q 577 100 544 81 l 606 40 q 539 0 569 13 q 480 -12 508 -12 q 356 12 436 -12 q 236 36 276 36 q 164 22 198 36 q 98 -20 130 8 l 50 36 "},"W":{"x_min":31,"x_max":980,"ha":1010,"o":"m 31 1035 l 117 1035 l 282 153 l 452 1035 l 557 1035 l 729 153 l 895 1035 l 980 1035 l 777 0 l 676 0 l 501 883 l 329 0 l 232 0 l 31 1035 "},"Ğ":{"x_min":77,"x_max":674,"ha":765,"o":"m 364 513 l 674 513 l 674 0 l 605 0 l 596 106 q 500 11 555 44 q 378 -21 444 -21 q 150 110 224 -21 q 77 518 77 242 q 151 927 77 798 q 387 1057 226 1057 q 583 979 511 1057 q 667 756 655 901 l 580 756 q 517 918 568 861 q 386 976 467 976 q 220 865 273 976 q 167 518 167 754 q 219 171 167 282 q 382 60 272 60 q 541 155 487 60 q 595 440 595 251 l 364 440 l 364 513 m 220 1294 l 267 1294 q 301 1228 273 1249 q 382 1207 328 1207 q 463 1227 436 1207 q 497 1294 490 1248 l 544 1294 q 497 1169 536 1208 q 382 1131 458 1131 q 266 1170 306 1131 q 220 1294 227 1209 "},"v":{"x_min":16,"x_max":512,"ha":528,"o":"m 222 0 l 16 762 l 98 762 l 265 148 l 429 762 l 512 762 l 306 0 l 222 0 "},">":{"x_min":179,"x_max":978,"ha":1157,"o":"m 978 434 l 978 392 l 179 66 l 179 125 l 887 413 l 179 700 l 179 762 l 978 434 "},"û":{"x_min":85,"x_max":525,"ha":612,"o":"m 168 762 l 168 247 q 193 90 168 126 q 283 54 218 54 q 393 94 344 54 q 442 180 442 134 l 442 762 l 525 762 l 525 0 l 450 0 l 450 83 q 366 5 412 30 q 264 -20 321 -20 q 127 36 170 -20 q 85 220 85 93 l 85 762 l 168 762 m 139 846 l 257 1030 l 358 1030 l 477 846 l 418 846 l 307 971 l 197 846 l 139 846 "},"Ð":{"x_min":0,"x_max":692,"ha":768,"o":"m 187 78 l 307 78 q 536 168 474 78 q 599 516 599 259 q 536 867 599 776 q 307 958 474 958 l 187 958 l 187 592 l 387 592 l 387 520 l 187 520 l 187 78 m 97 0 l 97 520 l 0 520 l 0 592 l 97 592 l 97 1035 l 312 1035 q 606 919 521 1035 q 692 518 692 804 q 606 116 692 232 q 312 0 520 0 l 97 0 "},"r":{"x_min":87,"x_max":350,"ha":374,"o":"m 87 0 l 87 762 l 168 762 l 168 679 q 234 750 193 727 q 335 774 274 774 l 350 774 l 350 692 q 206 638 245 687 q 168 441 168 589 l 168 0 l 87 0 "},"Č":{"x_min":77,"x_max":674.78125,"ha":753,"o":"m 674 348 q 588 72 662 165 q 381 -21 514 -21 q 150 109 224 -21 q 77 518 77 240 q 150 925 77 795 q 381 1055 224 1055 q 588 970 512 1055 q 668 735 664 885 l 579 734 q 522 912 573 849 q 381 976 470 976 q 219 864 272 976 q 167 518 167 753 q 219 171 167 282 q 381 60 272 60 q 524 135 471 60 q 587 348 578 210 l 674 348 m 211 1305 l 269 1305 l 379 1179 l 490 1305 l 549 1305 l 430 1121 l 329 1121 l 211 1305 "},"x":{"x_min":-4,"x_max":499,"ha":494,"o":"m -4 0 l 200 402 l 14 762 l 103 762 l 246 471 l 398 762 l 487 762 l 297 397 l 499 0 l 408 0 l 246 319 l 82 0 l -4 0 "},"è":{"x_min":65,"x_max":515,"ha":581,"o":"m 510 245 q 447 47 503 115 q 290 -21 391 -21 q 120 77 175 -21 q 65 379 65 175 q 121 682 65 584 q 296 781 178 781 q 459 697 403 781 q 515 452 515 614 l 515 388 l 152 388 l 152 345 q 186 124 152 197 q 289 52 221 52 q 389 102 353 52 q 429 245 425 152 l 510 245 m 152 457 l 430 457 q 431 473 430 462 q 432 490 432 485 q 396 652 432 595 q 295 710 360 710 q 188 646 225 710 q 152 463 152 583 l 152 457 m 371 846 l 312 846 l 144 1030 l 252 1030 l 371 846 "},"Ø":{"x_min":34.75,"x_max":726.65625,"ha":764,"o":"m 726 1023 l 637 871 q 676 730 664 807 q 688 540 688 654 q 615 111 688 244 q 382 -21 542 -21 q 258 5 310 -21 q 165 86 205 31 l 91 -34 l 34 -2 l 127 154 q 89 305 101 224 q 77 518 77 385 q 150 925 77 796 q 383 1055 224 1055 q 513 1025 458 1055 q 604 937 568 996 l 672 1053 l 726 1023 m 189 255 l 550 852 q 486 942 530 910 q 382 975 441 975 q 219 863 271 975 q 167 518 167 752 q 172 366 167 428 q 189 255 177 304 m 575 769 l 216 175 q 286 88 246 116 q 379 60 327 60 q 545 171 493 60 q 598 529 598 282 q 592 664 598 606 q 575 769 587 722 "},"÷":{"x_min":173,"x_max":987,"ha":1157,"o":"m 580 247 q 627 226 608 247 q 647 178 647 206 q 627 131 647 151 q 580 112 608 112 q 532 131 551 112 q 513 178 513 150 q 532 226 513 206 q 580 247 552 247 m 987 442 l 987 386 l 173 386 l 173 442 l 987 442 m 580 716 q 627 696 608 716 q 647 648 647 677 q 627 601 647 621 q 580 581 608 581 q 532 601 551 581 q 513 648 513 621 q 532 696 513 676 q 580 716 551 716 "},"h":{"x_min":87,"x_max":527,"ha":612,"o":"m 87 0 l 87 1035 l 170 1035 l 170 686 q 247 757 201 732 q 350 782 294 782 q 484 724 442 782 q 527 540 527 666 l 527 0 l 444 0 l 444 514 q 418 669 444 630 q 327 708 392 708 q 218 668 266 708 q 170 581 170 628 l 170 0 l 87 0 "},".":{"x_min":114,"x_max":210,"ha":325,"o":"m 114 0 l 114 122 l 210 122 l 210 0 l 114 0 "},"f":{"x_min":34,"x_max":296,"ha":317,"o":"m 113 0 l 113 694 l 34 694 l 34 762 l 113 762 l 113 863 q 144 999 113 959 q 251 1039 176 1039 q 288 1036 263 1039 q 296 1036 293 1036 l 296 967 q 285 967 291 967 q 268 968 279 968 q 212 946 227 968 q 198 846 198 925 l 198 762 l 296 762 l 296 694 l 198 694 l 198 0 l 113 0 "},"“":{"x_min":115,"x_max":422,"ha":538,"o":"m 422 865 l 422 743 l 327 743 l 327 863 q 349 990 327 944 q 422 1055 372 1036 l 422 1002 q 384 961 396 987 q 373 894 373 935 q 373 875 373 881 q 374 865 373 869 l 422 865 m 209 865 l 209 743 l 115 743 l 115 863 q 137 991 115 945 q 209 1055 160 1037 l 209 1002 q 172 962 183 987 q 161 895 161 936 q 161 876 161 883 q 162 865 161 870 l 209 865 "},"A":{"x_min":22,"x_max":678,"ha":701,"o":"m 22 0 l 300 1035 l 402 1035 l 678 0 l 590 0 l 503 325 l 191 325 l 102 0 l 22 0 m 206 404 l 485 404 l 346 921 l 206 404 "},"O":{"x_min":77,"x_max":688,"ha":764,"o":"m 166 518 q 218 172 166 284 q 382 60 271 60 q 545 171 492 60 q 598 518 598 282 q 545 864 598 753 q 382 976 492 976 q 218 863 271 976 q 166 518 166 751 m 77 518 q 150 925 77 795 q 382 1055 224 1055 q 614 925 540 1055 q 688 518 688 796 q 613 109 688 240 q 382 -21 539 -21 q 151 109 225 -21 q 77 518 77 240 "},"π":{"x_min":4,"x_max":764,"ha":783,"o":"m 747 650 l 624 650 l 543 266 q 528 190 533 224 q 523 138 523 157 q 540 82 523 98 q 597 66 557 66 q 631 67 616 66 q 660 72 646 69 l 643 0 q 607 -8 623 -6 q 578 -11 592 -11 q 479 25 515 -11 q 443 126 443 62 q 450 209 443 157 q 481 364 458 260 l 540 650 l 282 650 l 144 0 l 62 0 l 198 650 l 172 650 q 114 628 134 650 q 86 559 93 606 l 4 559 q 61 686 20 651 q 201 721 102 721 l 764 721 l 747 650 "},"‘":{"x_min":115,"x_max":209,"ha":325,"o":"m 209 865 l 209 743 l 115 743 l 115 863 q 137 991 115 945 q 209 1055 160 1037 l 209 1002 q 172 962 183 987 q 160 895 160 936 q 160 876 160 883 q 162 865 161 870 l 209 865 "},"3":{"x_min":69,"x_max":583,"ha":648,"o":"m 69 273 l 152 273 q 198 115 154 172 q 318 59 242 59 q 446 118 398 59 q 494 278 494 178 q 440 444 494 391 q 275 498 387 498 q 248 497 257 498 q 232 497 239 497 l 232 573 l 237 573 q 414 624 358 573 q 471 786 471 676 q 431 916 471 870 q 322 963 392 963 q 214 912 252 963 q 176 772 176 862 l 176 768 l 93 768 q 155 968 96 897 q 319 1040 215 1040 q 489 970 425 1040 q 554 786 554 901 q 519 638 554 700 q 416 543 484 576 q 542 450 501 514 q 583 281 583 386 q 512 60 583 141 q 317 -20 441 -20 q 136 57 201 -20 q 69 273 70 135 "},"9":{"x_min":66,"x_max":581,"ha":648,"o":"m 486 461 q 401 387 445 411 q 306 364 357 364 q 131 452 196 364 q 66 691 66 541 q 133 947 66 855 q 320 1039 200 1039 q 517 921 454 1039 q 581 558 581 804 q 513 119 581 259 q 303 -20 446 -20 q 152 41 209 -20 q 92 207 94 103 l 172 207 q 211 97 176 137 q 303 58 247 58 q 437 161 391 58 q 486 461 484 264 m 313 964 q 196 892 238 964 q 155 690 155 820 q 196 501 155 566 q 317 437 238 437 q 435 497 392 437 q 478 663 478 557 q 435 886 478 809 q 313 964 393 964 "},"l":{"x_min":118,"x_max":201,"ha":318,"o":"m 118 0 l 118 1035 l 201 1035 l 201 0 l 118 0 "},"":{"x_min":34,"x_max":523,"ha":621,"o":"m 113 0 l 113 694 l 34 694 l 34 762 l 113 762 l 113 864 q 144 999 113 959 q 251 1039 176 1039 q 288 1037 263 1039 q 296 1036 293 1036 l 296 967 q 285 967 291 967 q 268 968 279 968 q 212 946 227 968 q 198 847 198 925 l 198 762 l 296 762 l 296 694 l 198 694 l 198 0 l 113 0 m 431 903 l 431 1035 l 523 1035 l 523 903 l 431 903 m 434 0 l 434 762 l 520 762 l 520 0 l 434 0 "},"4":{"x_min":57,"x_max":591,"ha":648,"o":"m 409 0 l 409 265 l 57 265 l 57 340 l 409 1019 l 498 1019 l 498 340 l 591 340 l 591 265 l 498 265 l 498 0 l 409 0 m 144 340 l 409 340 l 418 886 l 144 340 "},"Ü":{"x_min":97,"x_max":663,"ha":760,"o":"m 663 1035 l 663 273 q 590 54 663 130 q 380 -21 518 -21 q 169 54 241 -21 q 97 273 97 129 l 97 1035 l 183 1035 l 183 337 q 189 210 183 246 q 210 148 195 174 q 280 81 236 104 q 380 58 324 58 q 480 81 436 58 q 550 148 525 105 q 570 203 564 172 q 577 290 577 233 l 577 337 l 577 1035 l 663 1035 m 251 1150 l 251 1253 l 329 1253 l 329 1150 l 251 1150 m 429 1150 l 429 1253 l 507 1253 l 507 1150 l 429 1150 "},"à":{"x_min":32,"x_max":519,"ha":550,"o":"m 519 -2 q 487 -7 500 -6 q 462 -9 474 -9 q 411 6 431 -9 q 379 56 390 23 q 304 -2 346 17 q 211 -22 262 -22 q 79 33 126 -22 q 32 189 32 89 q 74 330 32 277 q 221 424 116 383 q 280 445 242 432 q 380 536 380 479 l 380 600 q 354 689 380 661 q 268 717 327 717 q 171 681 204 717 q 137 574 139 645 l 58 574 l 58 590 q 115 729 58 677 q 270 781 173 781 q 367 766 328 781 q 430 722 406 752 q 453 674 446 702 q 461 595 461 647 l 461 555 l 461 142 q 471 71 461 84 q 510 57 481 57 l 519 57 l 519 -2 m 378 408 q 159 298 201 340 q 117 189 117 256 q 146 88 117 125 q 228 51 176 51 q 341 106 305 51 q 378 282 378 162 l 378 408 m 356 846 l 297 846 l 129 1030 l 237 1030 l 356 846 "},"ó":{"x_min":65,"x_max":554,"ha":621,"o":"m 152 379 q 191 135 152 217 q 309 53 231 53 q 427 135 387 53 q 468 379 468 218 q 427 623 468 540 q 309 706 387 706 q 191 623 231 706 q 152 379 152 541 m 65 379 q 126 680 65 580 q 309 781 187 781 q 492 680 431 781 q 554 379 554 580 q 493 78 554 178 q 309 -21 432 -21 q 125 78 186 -21 q 65 379 65 178 m 237 846 l 355 1030 l 465 1030 l 297 846 l 237 846 "}}}
